<svg width="23" height="25" viewBox="0 0 23 25" fill="none" xmlns="http://www.w3.org/2000/svg"><path d="M22.696 17.052a3.379 3.379 0 01-1.703 2.934l-7.957 4.565a3.396 3.396 0 01-3.376 0l-7.957-4.565A3.387 3.387 0 010 17.052V7.947a3.379 3.379 0 011.699-2.931L9.66.448a3.4 3.4 0 013.376 0l7.96 4.568a3.384 3.384 0 011.704 2.93l-.004 9.106z" fill="#0075BD"/><path d="M10.367 1.72l-7.86 4.53a1.965 1.965 0 00-.981 1.7l.005 9.072a1.959 1.959 0 00.981 1.7l7.867 4.54a1.968 1.968 0 001.966 0l7.859-4.53a1.965 1.965 0 00.983-1.7L21.18 7.96a1.956 1.956 0 00-.98-1.696l-7.87-4.543a1.968 1.968 0 00-1.964 0V1.72z" fill="#fff"/><path d="M7.773 20.194a.373.373 0 01.077-.16l7.055-11.948a4.04 4.04 0 00.09-.16c-.02-.036-.043-.03-.064-.03-1.005.004-2.01.01-3.014.01a.21.21 0 00-.2.135L9.44 11.793 4.611 19.75a.706.706 0 00-.042.068c-.028.054-.06.063-.118.03-.25-.148-.502-.29-.768-.442l7.165-11.473c-.017-.046-.048-.035-.073-.035-.383-.012-.767-.028-1.152-.031a4.26 4.26 0 00-1.583.254c-.46.171-.853.489-1.115.905-1.306 2.038-2.62 4.074-3.942 6.108-.02.032-.042.063-.064.095-.075 0-.064-.062-.068-.105a1.26 1.26 0 01-.004-.198c0-2.248.008-4.495-.007-6.743a.966.966 0 01.553-.937c1.73-.986 3.45-1.99 5.177-2.986.77-.444 1.543-.884 2.306-1.338a.874.874 0 01.973 0c1.406.824 2.825 1.629 4.238 2.44l3.201 1.836c.076.043.151.09.227.136a.74.74 0 01.391.693c.003 2.445.003 4.89 0 7.335a.45.45 0 01-.02.178c-.083.082-.114-.01-.145-.053-.128-.18-.241-.367-.36-.551a1037.39 1037.39 0 00-2.845-4.425c-.32-.499-.644-.994-.96-1.496-.073-.117-.087-.118-.16.007-.479.806-.956 1.612-1.431 2.419a.244.244 0 00.029.287l1.177 1.904 2.008 3.243.817 1.313a.33.33 0 01.08.21c-.053.108-.167.137-.261.187-.155.112-.325.2-.505.263-.097-.024-.132-.11-.178-.183-.622-.969-1.236-1.94-1.853-2.911-.636-.998-1.268-2-1.907-2.995-.082-.129-.094-.129-.171 0-.556.932-1.103 1.868-1.659 2.799a.246.246 0 00.014.29c.749 1.156 1.48 2.316 2.222 3.475.205.324.416.646.619.97.039.064.094.127.057.213a3.46 3.46 0 01-.626.388c-.693.403-1.386.805-2.08 1.206a.682.682 0 01-.744 0 867.987 867.987 0 00-3.07-1.761.402.402 0 01-.176-.136" fill="#202A3B"/><path d="M19.855 15.558c0-.06.005-.12.005-.181V8.06a.759.759 0 00-.416-.723 2429.737 2429.737 0 01-7.69-4.416.715.715 0 00-.776 0c-1.422.825-2.846 1.648-4.273 2.47-1.145.66-2.29 1.321-3.433 1.983a.713.713 0 00-.385.674c.006 2.34.01 4.68.01 7.02 0 .053-.021.111.025.157-.273.45-.57.883-.855 1.323l-.43.662c-.023.035-.05.068-.096.13-.003-.074-.006-.115-.006-.155v-9.26a1.864 1.864 0 01.977-1.68c.996-.589 2.004-1.155 3.005-1.737.844-.487 1.688-.98 2.531-1.47.788-.455 1.567-.926 2.368-1.36a1.963 1.963 0 011.995.052c.644.365 1.284.736 1.927 1.105.603.346 1.207.693 1.81 1.041l1.67.958 1.655.948c.242.14.485.278.726.42a2.036 2.036 0 011.008 1.448c.011.087.015.175.01.263v9.111a1.954 1.954 0 01-.704 1.515c-.127.097-.264.18-.408.248-.825.48-1.65.958-2.477 1.435l-2.632 1.52-2.532 1.47c-.21.14-.446.238-.694.286-.413.08-.84.027-1.22-.154-.42-.226-.83-.47-1.244-.707a255.64 255.64 0 01-1.669-.958l-.471-.272c-.059-.032-.098-.068-.053-.14l.62-1.047c.008-.013.026-.018.04-.027.193.09.38.192.558.307.909.518 1.815 1.04 2.72 1.564a.642.642 0 00.698-.009c.86-.502 1.724-1 2.589-1.495a2.67 2.67 0 01.13-.069.712.712 0 01.313-.229c.779-.445 1.552-.9 2.331-1.344.068-.038.124-.094.209-.085l.762-.44c.048-.1.146-.13.23-.178.384-.221.765-.449 1.152-.663a.658.658 0 00.35-.62c.004-.39 0-.777 0-1.166a.29.29 0 01.04-.204" fill="#81B2D4"/><path d="M19.855 15.558c0 .482.013.964 0 1.445a.611.611 0 01-.32.552c-.486.272-.964.565-1.454.832-.194-.355-.42-.693-.633-1.038a21657.97 21657.97 0 00-3.32-5.369c-.068-.107-.127-.219-.204-.32a.16.16 0 010-.203c.265-.442.525-.884.786-1.33l.728-1.232a.132.132 0 01.064-.068c.126.195.255.39.382.588a4738.087 4738.087 0 013.85 5.989c.03.06.07.113.118.157m-2.531 3.267c-.315.208-.65.383-.976.576-.59.346-1.185.686-1.776 1.028l-.101.056a.266.266 0 00-.068-.147l-1.582-2.482c-.434-.68-.868-1.36-1.304-2.04a.208.208 0 01-.013-.252 529.1 529.1 0 001.74-2.943c.014-.024.026-.05.06-.057.048.01.06.057.082.092l3.15 4.956c.224.351.446.703.671 1.054.028.06.068.114.117.159z" fill="#258BCD"/></svg>