<svg width="23" height="25" viewBox="0 0 23 25" fill="none" xmlns="http://www.w3.org/2000/svg">
<path d="M22.7798 17.0522C22.7798 17.6472 22.622 18.2317 22.3225 18.7468C22.0229 19.2619 21.5921 19.6892 21.0735 19.9859L13.0844 24.5511C12.569 24.8452 11.985 25 11.3908 25C10.7965 25 10.2126 24.8452 9.69709 24.5511L1.70806 19.9859C1.18913 19.6895 0.757977 19.2622 0.45809 18.7471C0.158203 18.232 0.00019313 17.6474 0 17.0522L0 7.94704C0.000211036 7.35258 0.157885 6.76867 0.457146 6.25409C0.756407 5.73952 1.18669 5.31245 1.70468 5.01588L9.6954 0.448149C10.211 0.15449 10.7949 0 11.3891 0C11.9832 0 12.5671 0.15449 13.0827 0.448149L21.0718 5.01588C21.5905 5.31189 22.0215 5.73874 22.3214 6.25338C22.6213 6.76801 22.7794 7.35222 22.7798 7.94704V17.0522Z" fill="#0075BD"/>
<path d="M10.4042 1.71998L2.51675 6.25065C2.21687 6.42316 1.96791 6.67112 1.79489 6.96962C1.62186 7.26813 1.53086 7.60667 1.53104 7.95123L1.53527 17.0235C1.53576 17.3675 1.62716 17.7053 1.80032 18.003C1.97348 18.3008 2.2223 18.548 2.52183 18.7199L10.4177 23.2598C10.7175 23.432 11.0576 23.5226 11.4038 23.5226C11.75 23.5226 12.0902 23.432 12.39 23.2598L20.2782 18.73C20.5781 18.5578 20.8271 18.3102 21.0003 18.012C21.1734 17.7138 21.2647 17.3755 21.2648 17.0311L21.258 7.95797C21.2579 7.61435 21.1669 7.27679 20.9942 6.97919C20.8215 6.68159 20.5731 6.43441 20.274 6.26245L12.3764 1.72082C12.0766 1.54865 11.7365 1.45801 11.3903 1.45801C11.0441 1.45801 10.704 1.54865 10.4042 1.72082V1.71998Z" fill="white"/>
<path d="M7.80104 20.1947C7.81342 20.136 7.83985 20.0811 7.8781 20.0347L14.9576 8.08764C14.9907 8.03289 15.0211 7.97645 15.0482 7.92592C15.0279 7.89054 15.0042 7.89728 14.9839 7.89728C13.9753 7.89728 12.9667 7.90738 11.9581 7.90654C11.9156 7.90633 11.874 7.91893 11.8388 7.94269C11.8036 7.96644 11.7764 8.00023 11.7608 8.03962C10.9987 9.28902 10.2365 10.5398 9.47439 11.792L4.62796 19.7458C4.61251 19.7685 4.59837 19.7921 4.58562 19.8165C4.55682 19.8704 4.52464 19.8797 4.46706 19.846C4.21301 19.6986 3.95896 19.5562 3.69559 19.4038L10.8869 7.93181C10.8708 7.88633 10.8395 7.89728 10.8141 7.89644C10.4296 7.88464 10.0443 7.86864 9.65815 7.86527C9.11728 7.84857 8.57815 7.93432 8.06949 8.11796C7.6064 8.28923 7.21315 8.60783 6.95082 9.02426C5.6371 11.0626 4.3183 13.0976 2.99442 15.1292C2.97409 15.1612 2.95207 15.1923 2.93006 15.2243C2.85384 15.2243 2.8657 15.1629 2.85892 15.1191C2.85235 15.0536 2.85094 14.9877 2.85469 14.922C2.85469 12.6739 2.86316 10.4267 2.84791 8.1786C2.83591 7.98496 2.8827 7.79219 2.98222 7.62532C3.08173 7.45846 3.22937 7.32519 3.40598 7.24282C5.14199 6.25818 6.86783 5.25249 8.60045 4.25775C9.37277 3.81386 10.1519 3.37419 10.914 2.92272C11.0584 2.8264 11.2283 2.77496 11.4022 2.77496C11.5761 2.77496 11.746 2.8264 11.8904 2.92272C13.3021 3.74564 14.7256 4.55086 16.144 5.36536C17.2133 5.97798 18.2834 6.58948 19.3544 7.19986C19.4306 7.24366 19.5051 7.28999 19.5822 7.33294C19.7075 7.39919 19.8111 7.49978 19.8808 7.62278C19.9504 7.74578 19.9831 7.88605 19.9751 8.02699C19.9751 10.4719 19.9751 12.9165 19.9751 15.3608C19.9807 15.421 19.9741 15.4817 19.9556 15.5394C19.871 15.6236 19.8405 15.5293 19.8091 15.4855C19.6813 15.3069 19.5678 15.1191 19.4492 14.9346C18.5008 13.4578 17.5487 11.9827 16.5929 10.5092C16.2719 10.0114 15.9467 9.51531 15.6292 9.01499C15.5555 8.89792 15.5445 8.89707 15.4683 9.02173C14.9884 9.82808 14.5085 10.6344 14.0287 11.4408C14.0023 11.4855 13.9909 11.5374 13.996 11.5891C14.0012 11.6407 14.0227 11.6893 14.0574 11.728C14.4526 12.3614 14.8478 12.9954 15.243 13.6299L17.2576 16.8727C17.5303 17.3113 17.8027 17.749 18.0748 18.1858C18.1272 18.2439 18.1572 18.3185 18.1595 18.3964C18.1053 18.5042 17.9901 18.5345 17.897 18.5834C17.7415 18.6954 17.5703 18.7843 17.3889 18.847C17.2907 18.8226 17.2568 18.7358 17.2102 18.6634C16.5861 17.6948 15.9696 16.7261 15.3472 15.7516C14.7095 14.7543 14.0769 13.752 13.4342 12.7564C13.3495 12.6284 13.3402 12.6284 13.2648 12.7564C12.7076 13.6889 12.1588 14.6255 11.5999 15.5562C11.571 15.5997 11.5568 15.6512 11.5592 15.7033C11.5616 15.7554 11.5806 15.8053 11.6135 15.846C12.3655 16.999 13.0997 18.1622 13.8449 19.3212C14.0524 19.6455 14.2615 19.9673 14.4656 20.2924C14.5046 20.3556 14.5596 20.4187 14.5232 20.5038C14.3283 20.6551 14.1176 20.7853 13.8949 20.8921C13.1993 21.2953 12.5035 21.6971 11.8074 22.0974C11.6962 22.1691 11.5665 22.2072 11.434 22.2072C11.3014 22.2072 11.1717 22.1691 11.0605 22.0974C10.0347 21.5078 9.00778 20.9207 7.97972 20.3362C7.90885 20.308 7.84747 20.2604 7.80274 20.1989" fill="#202A3B"/>
<path d="M19.9277 15.5579C19.9277 15.4973 19.9319 15.4375 19.9319 15.3769C19.9319 12.9381 19.9319 10.4992 19.9319 8.05989C19.9411 7.9119 19.9064 7.76447 19.8322 7.63587C19.758 7.50727 19.6475 7.40314 19.5144 7.33637C16.9383 5.86854 14.3657 4.39678 11.7964 2.92109C11.6804 2.8465 11.5453 2.80682 11.4072 2.80682C11.2692 2.80682 11.134 2.8465 11.0181 2.92109C9.5898 3.74597 8.16006 4.56889 6.72891 5.38984C5.58004 6.05075 4.43258 6.71223 3.28653 7.37427C3.16377 7.43761 3.06207 7.53494 2.9937 7.65451C2.92532 7.77408 2.89321 7.91078 2.90122 8.0481C2.90687 10.3885 2.90997 12.729 2.91054 15.0694C2.91054 15.1208 2.89022 15.1798 2.93594 15.2252C2.66326 15.675 2.36518 16.108 2.0781 16.5485L1.64622 17.2105C1.62335 17.245 1.59541 17.2779 1.55052 17.3402C1.55052 17.2669 1.54375 17.2257 1.54375 17.1852C1.54375 14.0969 1.54375 11.0101 1.54375 7.92513C1.53651 7.58263 1.62417 7.24475 1.79714 6.94851C1.97011 6.65227 2.22171 6.40908 2.52438 6.2456C3.52365 5.656 4.53561 5.0883 5.5408 4.5088C6.38764 4.02112 7.23447 3.52838 8.0813 3.03901C8.87225 2.58333 9.65387 2.11249 10.4584 1.68124C10.7661 1.51083 11.1143 1.4257 11.4664 1.43473C11.8185 1.44377 12.1618 1.54664 12.4603 1.73262C13.1064 2.09817 13.75 2.46878 14.3944 2.8377C15.0002 3.1836 15.6057 3.53062 16.2109 3.87877L17.8868 4.8373L19.5457 5.78403C19.7888 5.92385 20.0327 6.06198 20.2749 6.20517C20.5418 6.35548 20.7714 6.56358 20.9465 6.81406C21.1217 7.06454 21.238 7.351 21.2868 7.65222C21.2977 7.73966 21.3011 7.82785 21.297 7.91586C21.297 10.9526 21.297 13.9896 21.297 17.0269C21.2988 17.3159 21.2363 17.6018 21.1139 17.8639C20.9915 18.126 20.8123 18.358 20.589 18.543C20.4621 18.6394 20.3256 18.7227 20.1817 18.7915C19.3541 19.271 18.5256 19.7483 17.6962 20.2234C16.8144 20.7288 15.9323 21.2341 15.0499 21.7395C14.2031 22.2275 13.3562 22.7174 12.5094 23.2093C12.2989 23.35 12.0622 23.4474 11.8133 23.4957C11.3993 23.576 10.9702 23.5216 10.5896 23.3407C10.1662 23.115 9.75634 22.8715 9.34054 22.634C8.78107 22.3156 8.22272 21.9961 7.66551 21.6755L7.19213 21.4068C7.1337 21.3748 7.0939 21.3403 7.13878 21.2661C7.3471 20.9183 7.55288 20.5679 7.76035 20.2192C7.76882 20.2065 7.7866 20.2006 7.801 20.1914C7.9946 20.2809 8.1819 20.3833 8.3616 20.498C9.27336 21.0168 10.1837 21.5379 11.0926 22.0613C11.1977 22.1274 11.3198 22.1617 11.4441 22.1603C11.5684 22.1588 11.6896 22.1214 11.793 22.0528C12.655 21.5475 13.5231 21.053 14.3885 20.5544C14.4309 20.53 14.4732 20.5072 14.5189 20.4845C14.6005 20.3805 14.7096 20.3012 14.834 20.2554C15.6156 19.8098 16.3913 19.3558 17.1729 18.9077C17.2381 18.8698 17.2974 18.8142 17.3821 18.8235L18.1442 18.383C18.1916 18.2844 18.2907 18.2533 18.3746 18.2053C18.7599 17.9846 19.1426 17.7563 19.5305 17.5424C19.6423 17.4843 19.735 17.3956 19.7977 17.2868C19.8604 17.178 19.8905 17.0536 19.8845 16.9283C19.8845 16.5401 19.8845 16.1518 19.8845 15.7635C19.8716 15.692 19.8861 15.6184 19.9251 15.5571" fill="#81B2D4"/>
<path d="M19.9277 15.5572C19.9277 16.039 19.9404 16.5216 19.9277 17.0026C19.9304 17.1152 19.9019 17.2264 19.8453 17.324C19.7887 17.4216 19.7061 17.5019 19.6067 17.5559C19.119 17.8297 18.6397 18.1203 18.1485 18.3873C17.9529 18.0327 17.7251 17.6949 17.5134 17.3487C16.4023 15.5592 15.2907 13.7699 14.1785 11.9808C14.1116 11.873 14.0507 11.7618 13.9761 11.6616C13.9516 11.6326 13.9381 11.5959 13.9381 11.558C13.9381 11.5201 13.9516 11.4834 13.9761 11.4544C14.242 11.0122 14.5037 10.5683 14.7662 10.1236L15.4962 8.89301C15.5088 8.86354 15.5316 8.8396 15.5606 8.82562C15.6876 9.02019 15.8146 9.21644 15.9442 9.41522C16.712 10.604 17.4795 11.793 18.2467 12.9823C18.7684 13.7898 19.2892 14.597 19.8091 15.4039C19.8378 15.4634 19.8781 15.5167 19.9277 15.5606" fill="#258BCD"/>
<path d="M17.3838 18.8277C17.0671 19.0358 16.7309 19.211 16.4041 19.4039C15.8113 19.7509 15.2185 20.0912 14.6206 20.4323L14.519 20.4887C14.5122 20.4341 14.4885 20.3829 14.4513 20.3422C13.9217 19.5145 13.3924 18.6871 12.8634 17.8599C12.4282 17.1799 11.9918 16.5011 11.5542 15.8233C11.5245 15.7884 11.5071 15.7448 11.5048 15.6991C11.5025 15.6534 11.5154 15.6083 11.5415 15.5706C12.1276 14.5907 12.7102 13.6081 13.2894 12.6226C13.303 12.5999 13.3148 12.5721 13.3495 12.5662C13.397 12.5763 13.408 12.6234 13.4342 12.658C14.486 14.3128 15.5383 15.9659 16.5912 17.6174C16.8156 17.9686 17.0392 18.3207 17.2687 18.6719C17.2962 18.731 17.3354 18.7839 17.3838 18.8277Z" fill="#258BCD"/>
</svg>
