<?xml version="1.0" encoding="utf-8"?>
<!-- Generator: Adobe Illustrator 26.0.3, SVG Export Plug-In . SVG Version: 6.00 Build 0)  -->
<svg version="1.1" id="Layer_1" xmlns="http://www.w3.org/2000/svg" xmlns:xlink="http://www.w3.org/1999/xlink" x="0px" y="0px"
	 viewBox="0 0 512 512" style="enable-background:new 0 0 512 512;" xml:space="preserve">
<style type="text/css">
	.st0{fill:#5C1DFA;}
	.st1{fill:url(#SVGID_1_);}
	.st2{fill:url(#SVGID_00000083772148441463893090000011751697603199825815_);}
</style>
<g>
	<polygon class="st0" points="294.1,271.8 390,256 294.1,240.2 350.8,161.2 271.8,217.9 256,122 240.2,217.9 161.2,161.2 
		217.9,240.2 122,256 217.9,271.8 161.2,350.8 240.2,294.1 256,390 271.8,294.1 350.8,350.8 	"/>
	<g>
		<g>
			
				<linearGradient id="SVGID_1_" gradientUnits="userSpaceOnUse" x1="429.5642" y1="523.732" x2="75.0372" y2="-23.1447" gradientTransform="matrix(1 0 0 -1 0 512)">
				<stop  offset="0.1028" style="stop-color:#00FFAA"/>
				<stop  offset="0.999" style="stop-color:#5F00FA"/>
			</linearGradient>
			<path class="st1" d="M256,0C114.6,0,0,114.6,0,256s114.6,256,256,256s256-114.6,256-256S397.4,0,256,0z M256,439.1
				c-101.1,0-183.1-82-183.1-183.1S154.9,72.9,256,72.9s183.1,82,183.1,183.1S357.1,439.1,256,439.1z"/>
		</g>
	</g>
	
		<linearGradient id="SVGID_00000134219354932872940640000007638700128466695344_" gradientUnits="userSpaceOnUse" x1="-3.6839" y1="504.0602" x2="524.3161" y2="5.3935">
		<stop  offset="0.1028" style="stop-color:#00FFAA"/>
		<stop  offset="0.999" style="stop-color:#5F00FA"/>
	</linearGradient>
	<path style="fill:url(#SVGID_00000134219354932872940640000007638700128466695344_);" d="M512,256C512,114.6,397.4,0,256,0
		c-38.5,0-75.1,8.5-107.9,23.8C128.8,33.8,116,41.7,116,41.7c172.3-44.9,259.8,74,263.4,79c36.7,33.5,59.7,81.7,59.7,135.3
		c0,101.1-82,183.1-183.1,183.1c-47.2,0-90.2-17.9-122.7-47.2c0,0,0,0,0,0c49.7,58.5,121.1,105.2,191.9,110.6
		C433,472.4,512,373.4,512,256z"/>
</g>
</svg>
