<svg width="112" height="286" viewBox="0 0 112 286" fill="none" xmlns="http://www.w3.org/2000/svg">
<g opacity="0.05">
<path d="M94.6143 2.33904L83.5341 8.50153C83.1132 8.73619 82.7638 9.07332 82.5209 9.4791C82.2781 9.88488 82.1503 10.345 82.1504 10.8134L82.1571 23.1513C82.1567 23.6197 82.2844 24.08 82.5273 24.4858C82.7702 24.8916 83.1197 25.2287 83.5408 25.4632L94.6316 31.6377C95.0527 31.8718 95.5304 31.9951 96.0167 31.9951C96.503 31.9951 96.9807 31.8718 97.4019 31.6377L108.481 25.477C108.902 25.2427 109.252 24.9057 109.496 24.4999C109.739 24.094 109.867 23.6337 109.867 23.1652L109.859 10.8254C109.859 10.3579 109.731 9.89875 109.488 9.49393C109.246 9.0891 108.897 8.75291 108.476 8.5191L97.3836 2.34089C96.9625 2.10673 96.4848 1.98346 95.9985 1.98346C95.5122 1.98346 95.0345 2.10673 94.6133 2.34089L94.6143 2.33904Z" fill="white"/>
<path d="M90.9578 27.4634C90.9752 27.3833 91.0124 27.3084 91.0664 27.2452L101.011 10.9974C101.058 10.9225 101.1 10.8467 101.138 10.7783C101.109 10.7302 101.077 10.7394 101.048 10.7394C99.6317 10.744 98.2153 10.7533 96.799 10.7514C96.738 10.7506 96.6782 10.7679 96.6279 10.801C96.5775 10.8341 96.539 10.8814 96.5176 10.9364C95.4486 12.6367 94.3785 14.3376 93.3076 16.0391L86.5004 26.8586C86.4788 26.8884 86.4589 26.9192 86.4409 26.9511C86.4005 27.0241 86.3554 27.0371 86.2748 26.9918C85.9223 26.7911 85.5661 26.5978 85.1916 26.3907L95.2914 10.7875C95.2684 10.7255 95.2251 10.7403 95.1896 10.7394C94.65 10.7237 94.1074 10.7024 93.5659 10.6978C92.8059 10.6758 92.0486 10.7932 91.3343 11.0437C90.684 11.2758 90.1314 11.7081 89.7623 12.2736C87.9206 15.0453 86.0683 17.8143 84.2054 20.5805C84.1766 20.624 84.1459 20.6665 84.1152 20.71C84.0086 20.71 84.0249 20.6258 84.0191 20.5667C84.0096 20.4776 84.0074 20.3879 84.0124 20.2985C84.0124 17.2413 84.024 14.185 84.0028 11.1278C83.9852 10.8646 84.0502 10.6024 84.1892 10.3752C84.3282 10.148 84.5349 9.96621 84.7825 9.85351C87.2225 8.51264 89.6462 7.14587 92.0804 5.79204C93.1654 5.18818 94.2553 4.58988 95.3317 3.97307C95.5345 3.84211 95.7732 3.77219 96.0173 3.77219C96.2615 3.77219 96.5002 3.84211 96.703 3.97307C98.6859 5.09294 100.686 6.18783 102.678 7.29105C104.18 8.12394 105.684 8.9562 107.191 9.78786C107.297 9.84704 107.403 9.91085 107.51 9.9728C107.686 10.0629 107.832 10.1996 107.929 10.3668C108.027 10.534 108.073 10.7245 108.062 10.916C108.065 14.2408 108.065 17.5656 108.062 20.8903C108.069 20.9724 108.06 21.0551 108.034 21.1335C107.916 21.2445 107.872 21.1197 107.828 21.0605C107.649 20.8173 107.488 20.562 107.322 20.3114C105.99 18.3029 104.653 16.2968 103.31 14.2932C102.859 13.6154 102.403 12.9412 101.957 12.2588C101.854 12.0997 101.834 12.0988 101.731 12.268C101.057 13.3641 100.385 14.4609 99.7143 15.5583C99.677 15.6191 99.6608 15.6899 99.6681 15.7602C99.6753 15.8305 99.7056 15.8968 99.7546 15.9494C100.309 16.8125 100.862 17.6756 101.415 18.5387L104.245 22.9488C104.629 23.545 105.013 24.1402 105.397 24.7345C105.469 24.8142 105.509 24.9157 105.51 25.0212C105.434 25.1673 105.274 25.2061 105.142 25.2745C104.924 25.4265 104.684 25.5471 104.43 25.6324C104.293 25.6 104.244 25.4817 104.179 25.3837C103.303 24.0659 102.437 22.7444 101.567 21.4239C100.671 20.0673 99.7796 18.7052 98.8779 17.3504C98.7627 17.1756 98.7454 17.1756 98.6369 17.3504C97.8543 18.6182 97.0832 19.8916 96.2987 21.1576C96.2582 21.2167 96.2382 21.2868 96.2417 21.3576C96.2451 21.4284 96.2718 21.4963 96.3179 21.5515C97.3742 23.1236 98.4055 24.7021 99.4512 26.2779C99.7392 26.719 100.037 27.1564 100.323 27.5984C100.378 27.6844 100.456 27.7695 100.404 27.8869C100.13 28.0927 99.8341 28.2697 99.5213 28.415C98.5444 28.963 97.5672 29.5095 96.5897 30.0545C96.4336 30.1526 96.2512 30.2048 96.0649 30.2048C95.8785 30.2048 95.6962 30.1526 95.5401 30.0545C94.0991 29.2531 92.6568 28.4547 91.2133 27.6594C91.1139 27.6216 91.0277 27.5575 90.9646 27.4745" fill="#202A3B"/>
<path d="M107.989 21.1585C107.989 21.0762 107.996 20.9948 107.996 20.9125C107.996 17.5958 107.996 14.279 107.996 10.9623C108.008 10.7611 107.959 10.5607 107.855 10.386C107.751 10.2112 107.596 10.0695 107.409 9.97834C103.794 7.98397 100.18 5.98221 96.5682 3.97305C96.4054 3.87169 96.2157 3.81777 96.0218 3.81777C95.828 3.81777 95.6382 3.87169 95.4755 3.97305C93.4705 5.09508 91.4623 6.21432 89.4509 7.3308C87.8371 8.22903 86.2239 9.1285 84.6113 10.0292C84.4389 10.1151 84.296 10.2473 84.1999 10.4098C84.1038 10.5722 84.0586 10.758 84.0697 10.9447C84.078 14.1277 84.0822 17.3106 84.0822 20.4936C84.0822 20.5639 84.0534 20.6434 84.1177 20.7054C83.7336 21.3175 83.3159 21.9075 82.9126 22.5058L82.3067 23.4056C82.2741 23.4528 82.2357 23.4981 82.1723 23.5813C82.1675 23.4814 82.1627 23.426 82.1627 23.3714C82.1627 19.1731 82.1627 14.9753 82.1627 10.7782C82.1526 10.3124 82.2758 9.85285 82.5188 9.44997C82.7619 9.04708 83.1154 8.71639 83.5406 8.49412C84.9445 7.69237 86.3657 6.92206 87.7772 6.13141C88.9669 5.46836 90.1557 4.79885 91.3445 4.13211C92.4555 3.51253 93.5531 2.87261 94.6833 2.28262C95.1156 2.051 95.6045 1.93534 96.099 1.9477C96.5936 1.96007 97.0756 2.1 97.4948 2.3529C98.4023 2.84949 99.3059 3.3544 100.211 3.85561C101.062 4.326 101.913 4.79793 102.763 5.27139L105.117 6.57436L107.451 7.86345C107.791 8.05302 108.134 8.24167 108.474 8.43494C108.849 8.63943 109.172 8.92257 109.418 9.26337C109.664 9.60418 109.827 9.99392 109.895 10.4037C109.911 10.5224 109.915 10.6421 109.91 10.7616C109.91 14.8921 109.91 19.0226 109.91 23.1532C109.912 23.5458 109.825 23.9342 109.653 24.2904C109.481 24.6466 109.23 24.9618 108.917 25.2135C108.737 25.3447 108.544 25.4578 108.341 25.551C107.178 26.2033 106.014 26.8537 104.849 27.5022C103.615 28.1896 102.378 28.8785 101.139 29.569C99.9483 30.2348 98.7585 30.9013 97.5697 31.5683C97.2739 31.7597 96.9411 31.8921 96.5913 31.9576C96.0098 32.0671 95.4071 31.9935 94.8724 31.7477C94.279 31.4407 93.7019 31.1096 93.1181 30.7869C92.3319 30.3554 91.5478 29.921 90.7655 29.4839C90.544 29.3606 90.3225 29.2373 90.101 29.114C90.0184 29.0706 89.9637 29.0216 90.0271 28.9226C90.3151 28.4492 90.609 27.9729 90.8999 27.4994C90.9114 27.4819 90.9374 27.4745 90.9566 27.4625C91.2285 27.5842 91.4916 27.7236 91.744 27.8795C93.0243 28.5848 94.3027 29.2938 95.5792 30.0064C95.7266 30.0963 95.898 30.1431 96.0725 30.1411C96.247 30.1392 96.4172 30.0885 96.5624 29.9953C97.7733 29.3119 98.9928 28.636 100.211 27.9609C100.271 27.9285 100.332 27.8971 100.394 27.8684C100.508 27.727 100.662 27.6191 100.836 27.5568C101.934 26.9511 103.024 26.3324 104.122 25.7286C104.218 25.6768 104.297 25.6009 104.416 25.613L105.492 25.0137C105.558 24.8796 105.697 24.838 105.815 24.7724C106.357 24.4718 106.894 24.162 107.439 23.8708C107.597 23.7907 107.728 23.6685 107.815 23.5187C107.903 23.369 107.944 23.1981 107.934 23.0265C107.938 22.4984 107.934 21.9704 107.934 21.4424C107.916 21.3463 107.936 21.2475 107.99 21.165" fill="#81B2D4"/>
<path d="M107.989 21.1585C107.989 21.8141 108.008 22.4697 107.989 23.1235C107.993 23.2767 107.953 23.428 107.874 23.5606C107.794 23.6933 107.678 23.8022 107.538 23.8753C106.852 24.2452 106.179 24.6429 105.489 25.0063C105.214 24.5236 104.897 24.064 104.596 23.5942C103.038 21.1628 101.478 18.7291 99.9156 16.2934C99.8196 16.1473 99.7361 15.9956 99.6276 15.8587C99.5943 15.8196 99.5762 15.7706 99.5762 15.72C99.5762 15.6695 99.5943 15.6205 99.6276 15.5813C100.001 14.9802 100.368 14.3792 100.737 13.7716L101.762 12.0978C101.78 12.0574 101.812 12.0245 101.852 12.0053C102.03 12.2698 102.212 12.5361 102.391 12.8043C103.47 14.4208 104.548 16.0378 105.625 17.6555C106.358 18.7535 107.089 19.8515 107.819 20.9495C107.859 21.0306 107.916 21.1032 107.985 21.1631" fill="#258BCD"/>
<path d="M104.418 25.6056C103.973 25.8885 103.5 26.1271 103.042 26.3888C102.209 26.8604 101.371 27.3228 100.537 27.787L100.395 27.8638C100.385 27.7893 100.352 27.7195 100.299 27.6641C99.5552 26.5383 98.812 25.4129 98.0694 24.2878C97.458 23.3631 96.8451 22.4383 96.2305 21.5136C96.1891 21.4663 96.1648 21.4073 96.1615 21.3455C96.1582 21.2837 96.1761 21.2225 96.2123 21.1714C97.0355 19.8386 97.8536 18.5042 98.6667 17.1682C98.6859 17.1368 98.7022 17.0998 98.7512 17.0915C98.8174 17.1053 98.8337 17.1691 98.8664 17.2163C100.346 19.4634 101.826 21.7099 103.307 23.9558C103.621 24.4339 103.935 24.912 104.252 25.3901C104.292 25.472 104.348 25.5453 104.418 25.6056Z" fill="#258BCD"/>
</g>
<g opacity="0.05">
<path d="M94.6143 86.339L83.5341 92.5015C83.1132 92.7362 82.7638 93.0733 82.5209 93.4791C82.2781 93.8849 82.1503 94.345 82.1504 94.8134L82.1571 107.151C82.1567 107.62 82.2844 108.08 82.5273 108.486C82.7702 108.892 83.1197 109.229 83.5408 109.463L94.6316 115.638C95.0527 115.872 95.5304 115.995 96.0167 115.995C96.503 115.995 96.9807 115.872 97.4019 115.638L108.481 109.477C108.902 109.243 109.252 108.906 109.496 108.5C109.739 108.094 109.867 107.634 109.867 107.165L109.859 94.8254C109.859 94.3579 109.731 93.8988 109.488 93.4939C109.246 93.0891 108.897 92.7529 108.476 92.5191L97.3836 86.3409C96.9625 86.1067 96.4848 85.9835 95.9985 85.9835C95.5122 85.9835 95.0345 86.1067 94.6133 86.3409L94.6143 86.339Z" fill="white"/>
<path d="M90.9578 111.463C90.9752 111.383 91.0124 111.308 91.0664 111.245L101.011 94.9974C101.058 94.9225 101.1 94.8467 101.138 94.7783C101.109 94.7302 101.077 94.7394 101.048 94.7394C99.6317 94.744 98.2153 94.7533 96.799 94.7514C96.738 94.7506 96.6782 94.7679 96.6279 94.801C96.5775 94.8341 96.539 94.8814 96.5176 94.9364C95.4486 96.6367 94.3785 98.3376 93.3076 100.039L86.5004 110.859C86.4788 110.888 86.4589 110.919 86.4409 110.951C86.4005 111.024 86.3554 111.037 86.2748 110.992C85.9223 110.791 85.5661 110.598 85.1916 110.391L95.2914 94.7875C95.2684 94.7255 95.2251 94.7403 95.1896 94.7394C94.65 94.7237 94.1074 94.7024 93.5659 94.6978C92.8059 94.6758 92.0486 94.7932 91.3343 95.0437C90.684 95.2758 90.1314 95.7081 89.7623 96.2736C87.9206 99.0453 86.0683 101.814 84.2054 104.581C84.1766 104.624 84.1459 104.667 84.1152 104.71C84.0086 104.71 84.0249 104.626 84.0191 104.567C84.0096 104.478 84.0074 104.388 84.0124 104.298C84.0124 101.241 84.024 98.185 84.0028 95.1278C83.9852 94.8646 84.0502 94.6024 84.1892 94.3752C84.3282 94.148 84.5349 93.9662 84.7825 93.8535C87.2225 92.5126 89.6462 91.1459 92.0804 89.792C93.1654 89.1882 94.2553 88.5899 95.3317 87.9731C95.5345 87.8421 95.7732 87.7722 96.0173 87.7722C96.2615 87.7722 96.5002 87.8421 96.703 87.9731C98.6859 89.0929 100.686 90.1878 102.678 91.291C104.18 92.1239 105.684 92.9562 107.191 93.7879C107.297 93.847 107.403 93.9108 107.51 93.9728C107.686 94.0629 107.832 94.1996 107.929 94.3668C108.027 94.534 108.073 94.7245 108.062 94.916C108.065 98.2408 108.065 101.566 108.062 104.89C108.069 104.972 108.06 105.055 108.034 105.134C107.916 105.244 107.872 105.12 107.828 105.06C107.649 104.817 107.488 104.562 107.322 104.311C105.99 102.303 104.653 100.297 103.31 98.2932C102.859 97.6154 102.403 96.9412 101.957 96.2588C101.854 96.0997 101.834 96.0988 101.731 96.268C101.057 97.3641 100.385 98.4609 99.7143 99.5583C99.677 99.6191 99.6608 99.6899 99.6681 99.7602C99.6753 99.8305 99.7056 99.8968 99.7546 99.9494C100.309 100.813 100.862 101.676 101.415 102.539L104.245 106.949C104.629 107.545 105.013 108.14 105.397 108.734C105.469 108.814 105.509 108.916 105.51 109.021C105.434 109.167 105.274 109.206 105.142 109.275C104.924 109.427 104.684 109.547 104.43 109.632C104.293 109.6 104.244 109.482 104.179 109.384C103.303 108.066 102.437 106.744 101.567 105.424C100.671 104.067 99.7796 102.705 98.8779 101.35C98.7627 101.176 98.7454 101.176 98.6369 101.35C97.8543 102.618 97.0832 103.892 96.2987 105.158C96.2582 105.217 96.2382 105.287 96.2417 105.358C96.2451 105.428 96.2718 105.496 96.3179 105.552C97.3742 107.124 98.4055 108.702 99.4512 110.278C99.7392 110.719 100.037 111.156 100.323 111.598C100.378 111.684 100.456 111.769 100.404 111.887C100.13 112.093 99.8341 112.27 99.5213 112.415C98.5444 112.963 97.5672 113.51 96.5897 114.055C96.4336 114.153 96.2512 114.205 96.0649 114.205C95.8785 114.205 95.6962 114.153 95.5401 114.055C94.0991 113.253 92.6568 112.455 91.2133 111.659C91.1139 111.622 91.0277 111.557 90.9646 111.474" fill="#202A3B"/>
<path d="M107.989 105.158C107.989 105.076 107.996 104.995 107.996 104.913C107.996 101.596 107.996 98.279 107.996 94.9623C108.008 94.7611 107.959 94.5607 107.855 94.386C107.751 94.2112 107.596 94.0695 107.409 93.9783C103.794 91.984 100.18 89.9822 96.5682 87.9731C96.4054 87.8717 96.2157 87.8178 96.0218 87.8178C95.828 87.8178 95.6382 87.8717 95.4755 87.9731C93.4705 89.0951 91.4623 90.2143 89.4509 91.3308C87.8371 92.229 86.2239 93.1285 84.6113 94.0292C84.4389 94.1151 84.296 94.2473 84.1999 94.4098C84.1038 94.5722 84.0586 94.758 84.0697 94.9447C84.078 98.1277 84.0822 101.311 84.0822 104.494C84.0822 104.564 84.0534 104.643 84.1177 104.705C83.7336 105.318 83.3159 105.908 82.9126 106.506L82.3067 107.406C82.2741 107.453 82.2357 107.498 82.1723 107.581C82.1675 107.481 82.1627 107.426 82.1627 107.371C82.1627 103.173 82.1627 98.9753 82.1627 94.7782C82.1526 94.3124 82.2758 93.8529 82.5188 93.45C82.7619 93.0471 83.1154 92.7164 83.5406 92.4941C84.9445 91.6924 86.3657 90.9221 87.7772 90.1314C88.9669 89.4684 90.1557 88.7989 91.3445 88.1321C92.4555 87.5125 93.5531 86.8726 94.6833 86.2826C95.1156 86.051 95.6045 85.9353 96.099 85.9477C96.5936 85.9601 97.0756 86.1 97.4948 86.3529C98.4023 86.8495 99.3059 87.3544 100.211 87.8556C101.062 88.326 101.913 88.7979 102.763 89.2714L105.117 90.5744L107.451 91.8634C107.791 92.053 108.134 92.2417 108.474 92.4349C108.849 92.6394 109.172 92.9226 109.418 93.2634C109.664 93.6042 109.827 93.9939 109.895 94.4037C109.911 94.5224 109.915 94.6421 109.91 94.7616C109.91 98.8921 109.91 103.023 109.91 107.153C109.912 107.546 109.825 107.934 109.653 108.29C109.481 108.647 109.23 108.962 108.917 109.213C108.737 109.345 108.544 109.458 108.341 109.551C107.178 110.203 106.014 110.854 104.849 111.502C103.615 112.19 102.378 112.879 101.139 113.569C99.9483 114.235 98.7585 114.901 97.5697 115.568C97.2739 115.76 96.9411 115.892 96.5913 115.958C96.0098 116.067 95.4071 115.994 94.8724 115.748C94.279 115.441 93.7019 115.11 93.1181 114.787C92.3319 114.355 91.5478 113.921 90.7655 113.484C90.544 113.361 90.3225 113.237 90.101 113.114C90.0184 113.071 89.9637 113.022 90.0271 112.923C90.3151 112.449 90.609 111.973 90.8999 111.499C90.9114 111.482 90.9374 111.474 90.9566 111.462C91.2285 111.584 91.4916 111.724 91.744 111.88C93.0243 112.585 94.3027 113.294 95.5792 114.006C95.7266 114.096 95.898 114.143 96.0725 114.141C96.247 114.139 96.4172 114.089 96.5624 113.995C97.7733 113.312 98.9928 112.636 100.211 111.961C100.271 111.929 100.332 111.897 100.394 111.868C100.508 111.727 100.662 111.619 100.836 111.557C101.934 110.951 103.024 110.332 104.122 109.729C104.218 109.677 104.297 109.601 104.416 109.613L105.492 109.014C105.558 108.88 105.697 108.838 105.815 108.772C106.357 108.472 106.894 108.162 107.439 107.871C107.597 107.791 107.728 107.668 107.815 107.519C107.903 107.369 107.944 107.198 107.934 107.026C107.938 106.498 107.934 105.97 107.934 105.442C107.916 105.346 107.936 105.247 107.99 105.165" fill="#81B2D4"/>
<path d="M107.989 105.158C107.989 105.814 108.008 106.47 107.989 107.124C107.993 107.277 107.953 107.428 107.874 107.561C107.794 107.693 107.678 107.802 107.538 107.875C106.852 108.245 106.179 108.643 105.489 109.006C105.214 108.524 104.897 108.064 104.596 107.594C103.038 105.163 101.478 102.729 99.9156 100.293C99.8196 100.147 99.7361 99.9956 99.6276 99.8587C99.5943 99.8196 99.5762 99.7706 99.5762 99.72C99.5762 99.6695 99.5943 99.6205 99.6276 99.5813C100.001 98.9802 100.368 98.3792 100.737 97.7716L101.762 96.0978C101.78 96.0574 101.812 96.0245 101.852 96.0053C102.03 96.2698 102.212 96.5361 102.391 96.8043C103.47 98.4208 104.548 100.038 105.625 101.656C106.358 102.754 107.089 103.851 107.819 104.949C107.859 105.031 107.916 105.103 107.985 105.163" fill="#258BCD"/>
<path d="M104.418 109.606C103.973 109.889 103.5 110.127 103.042 110.389C102.209 110.86 101.371 111.323 100.537 111.787L100.395 111.864C100.385 111.789 100.352 111.719 100.299 111.664C99.5552 110.538 98.812 109.413 98.0694 108.288C97.458 107.363 96.8451 106.438 96.2305 105.514C96.1891 105.466 96.1648 105.407 96.1615 105.345C96.1582 105.284 96.1761 105.223 96.2123 105.171C97.0355 103.839 97.8536 102.504 98.6667 101.168C98.6859 101.137 98.7022 101.1 98.7512 101.091C98.8174 101.105 98.8337 101.169 98.8664 101.216C100.346 103.463 101.826 105.71 103.307 107.956C103.621 108.434 103.935 108.912 104.252 109.39C104.292 109.472 104.348 109.545 104.418 109.606Z" fill="#258BCD"/>
</g>
<g opacity="0.05">
<path d="M94.6143 170.339L83.5341 176.501C83.1132 176.736 82.7638 177.073 82.5209 177.479C82.2781 177.885 82.1503 178.345 82.1504 178.813L82.1571 191.151C82.1567 191.62 82.2844 192.08 82.5273 192.486C82.7702 192.892 83.1197 193.229 83.5408 193.463L94.6316 199.638C95.0527 199.872 95.5304 199.995 96.0167 199.995C96.503 199.995 96.9807 199.872 97.4019 199.638L108.481 193.477C108.902 193.243 109.252 192.906 109.496 192.5C109.739 192.094 109.867 191.634 109.867 191.165L109.859 178.825C109.859 178.358 109.731 177.899 109.488 177.494C109.246 177.089 108.897 176.753 108.476 176.519L97.3836 170.341C96.9625 170.107 96.4848 169.983 95.9985 169.983C95.5122 169.983 95.0345 170.107 94.6133 170.341L94.6143 170.339Z" fill="white"/>
<path d="M90.9578 195.463C90.9752 195.383 91.0124 195.308 91.0664 195.245L101.011 178.997C101.058 178.923 101.1 178.847 101.138 178.778C101.109 178.73 101.077 178.739 101.048 178.739C99.6317 178.744 98.2153 178.753 96.799 178.751C96.738 178.751 96.6782 178.768 96.6279 178.801C96.5775 178.834 96.539 178.881 96.5176 178.936C95.4486 180.637 94.3785 182.338 93.3076 184.039L86.5004 194.859C86.4788 194.888 86.4589 194.919 86.4409 194.951C86.4005 195.024 86.3554 195.037 86.2748 194.992C85.9223 194.791 85.5661 194.598 85.1916 194.391L95.2914 178.787C95.2684 178.726 95.2251 178.74 95.1896 178.739C94.65 178.724 94.1074 178.702 93.5659 178.698C92.8059 178.676 92.0486 178.793 91.3343 179.044C90.684 179.276 90.1314 179.708 89.7623 180.274C87.9206 183.045 86.0683 185.814 84.2054 188.581C84.1766 188.624 84.1459 188.667 84.1152 188.71C84.0086 188.71 84.0249 188.626 84.0191 188.567C84.0096 188.478 84.0074 188.388 84.0124 188.298C84.0124 185.241 84.024 182.185 84.0028 179.128C83.9852 178.865 84.0502 178.602 84.1892 178.375C84.3282 178.148 84.5349 177.966 84.7825 177.853C87.2225 176.513 89.6462 175.146 92.0804 173.792C93.1654 173.188 94.2553 172.59 95.3317 171.973C95.5345 171.842 95.7732 171.772 96.0173 171.772C96.2615 171.772 96.5002 171.842 96.703 171.973C98.6859 173.093 100.686 174.188 102.678 175.291C104.18 176.124 105.684 176.956 107.191 177.788C107.297 177.847 107.403 177.911 107.51 177.973C107.686 178.063 107.832 178.2 107.929 178.367C108.027 178.534 108.073 178.725 108.062 178.916C108.065 182.241 108.065 185.566 108.062 188.89C108.069 188.972 108.06 189.055 108.034 189.134C107.916 189.244 107.872 189.12 107.828 189.06C107.649 188.817 107.488 188.562 107.322 188.311C105.99 186.303 104.653 184.297 103.31 182.293C102.859 181.615 102.403 180.941 101.957 180.259C101.854 180.1 101.834 180.099 101.731 180.268C101.057 181.364 100.385 182.461 99.7143 183.558C99.677 183.619 99.6608 183.69 99.6681 183.76C99.6753 183.83 99.7056 183.897 99.7546 183.949C100.309 184.812 100.862 185.676 101.415 186.539L104.245 190.949C104.629 191.545 105.013 192.14 105.397 192.734C105.469 192.814 105.509 192.916 105.51 193.021C105.434 193.167 105.274 193.206 105.142 193.275C104.924 193.426 104.684 193.547 104.43 193.632C104.293 193.6 104.244 193.482 104.179 193.384C103.303 192.066 102.437 190.744 101.567 189.424C100.671 188.067 99.7796 186.705 98.8779 185.35C98.7627 185.176 98.7454 185.176 98.6369 185.35C97.8543 186.618 97.0832 187.892 96.2987 189.158C96.2582 189.217 96.2382 189.287 96.2417 189.358C96.2451 189.428 96.2718 189.496 96.3179 189.551C97.3742 191.124 98.4055 192.702 99.4512 194.278C99.7392 194.719 100.037 195.156 100.323 195.598C100.378 195.684 100.456 195.769 100.404 195.887C100.13 196.093 99.8341 196.27 99.5213 196.415C98.5444 196.963 97.5672 197.51 96.5897 198.055C96.4336 198.153 96.2512 198.205 96.0649 198.205C95.8785 198.205 95.6962 198.153 95.5401 198.055C94.0991 197.253 92.6568 196.455 91.2133 195.659C91.1139 195.622 91.0277 195.557 90.9646 195.474" fill="#202A3B"/>
<path d="M107.989 189.158C107.989 189.076 107.996 188.995 107.996 188.912C107.996 185.596 107.996 182.279 107.996 178.962C108.008 178.761 107.959 178.561 107.855 178.386C107.751 178.211 107.596 178.069 107.409 177.978C103.794 175.984 100.18 173.982 96.5682 171.973C96.4054 171.872 96.2157 171.818 96.0218 171.818C95.828 171.818 95.6382 171.872 95.4755 171.973C93.4705 173.095 91.4623 174.214 89.4509 175.331C87.8371 176.229 86.2239 177.128 84.6113 178.029C84.4389 178.115 84.296 178.247 84.1999 178.41C84.1038 178.572 84.0586 178.758 84.0697 178.945C84.078 182.128 84.0822 185.311 84.0822 188.494C84.0822 188.564 84.0534 188.643 84.1177 188.705C83.7336 189.318 83.3159 189.908 82.9126 190.506L82.3067 191.406C82.2741 191.453 82.2357 191.498 82.1723 191.581C82.1675 191.481 82.1627 191.426 82.1627 191.371C82.1627 187.173 82.1627 182.975 82.1627 178.778C82.1526 178.312 82.2758 177.853 82.5188 177.45C82.7619 177.047 83.1154 176.716 83.5406 176.494C84.9445 175.692 86.3657 174.922 87.7772 174.131C88.9669 173.468 90.1557 172.799 91.3445 172.132C92.4555 171.513 93.5531 170.873 94.6833 170.283C95.1156 170.051 95.6045 169.935 96.099 169.948C96.5936 169.96 97.0756 170.1 97.4948 170.353C98.4023 170.849 99.3059 171.354 100.211 171.856C101.062 172.326 101.913 172.798 102.763 173.271L105.117 174.574L107.451 175.863C107.791 176.053 108.134 176.242 108.474 176.435C108.849 176.639 109.172 176.923 109.418 177.263C109.664 177.604 109.827 177.994 109.895 178.404C109.911 178.522 109.915 178.642 109.91 178.762C109.91 182.892 109.91 187.023 109.91 191.153C109.912 191.546 109.825 191.934 109.653 192.29C109.481 192.647 109.23 192.962 108.917 193.213C108.737 193.345 108.544 193.458 108.341 193.551C107.178 194.203 106.014 194.854 104.849 195.502C103.615 196.19 102.378 196.879 101.139 197.569C99.9483 198.235 98.7585 198.901 97.5697 199.568C97.2739 199.76 96.9411 199.892 96.5913 199.958C96.0098 200.067 95.4071 199.993 94.8724 199.748C94.279 199.441 93.7019 199.11 93.1181 198.787C92.3319 198.355 91.5478 197.921 90.7655 197.484C90.544 197.361 90.3225 197.237 90.101 197.114C90.0184 197.071 89.9637 197.022 90.0271 196.923C90.3151 196.449 90.609 195.973 90.8999 195.499C90.9114 195.482 90.9374 195.474 90.9566 195.462C91.2285 195.584 91.4916 195.724 91.744 195.88C93.0243 196.585 94.3027 197.294 95.5792 198.006C95.7266 198.096 95.898 198.143 96.0725 198.141C96.247 198.139 96.4172 198.089 96.5624 197.995C97.7733 197.312 98.9928 196.636 100.211 195.961C100.271 195.929 100.332 195.897 100.394 195.868C100.508 195.727 100.662 195.619 100.836 195.557C101.934 194.951 103.024 194.332 104.122 193.729C104.218 193.677 104.297 193.601 104.416 193.613L105.492 193.014C105.558 192.88 105.697 192.838 105.815 192.772C106.357 192.472 106.894 192.162 107.439 191.871C107.597 191.791 107.728 191.668 107.815 191.519C107.903 191.369 107.944 191.198 107.934 191.026C107.938 190.498 107.934 189.97 107.934 189.442C107.916 189.346 107.936 189.247 107.99 189.165" fill="#81B2D4"/>
<path d="M107.989 189.158C107.989 189.814 108.008 190.47 107.989 191.124C107.993 191.277 107.953 191.428 107.874 191.561C107.794 191.693 107.678 191.802 107.538 191.875C106.852 192.245 106.179 192.643 105.489 193.006C105.214 192.524 104.897 192.064 104.596 191.594C103.038 189.163 101.478 186.729 99.9156 184.293C99.8196 184.147 99.7361 183.996 99.6276 183.859C99.5943 183.82 99.5762 183.771 99.5762 183.72C99.5762 183.669 99.5943 183.62 99.6276 183.581C100.001 182.98 100.368 182.379 100.737 181.772L101.762 180.098C101.78 180.057 101.812 180.025 101.852 180.005C102.03 180.27 102.212 180.536 102.391 180.804C103.47 182.421 104.548 184.038 105.625 185.656C106.358 186.753 107.089 187.851 107.819 188.949C107.859 189.031 107.916 189.103 107.985 189.163" fill="#258BCD"/>
<path d="M104.418 193.606C103.973 193.889 103.5 194.127 103.042 194.389C102.209 194.86 101.371 195.323 100.537 195.787L100.395 195.864C100.385 195.789 100.352 195.719 100.299 195.664C99.5552 194.538 98.812 193.413 98.0694 192.288C97.458 191.363 96.8451 190.438 96.2305 189.514C96.1891 189.466 96.1648 189.407 96.1615 189.345C96.1582 189.284 96.1761 189.223 96.2123 189.171C97.0355 187.839 97.8536 186.504 98.6667 185.168C98.6859 185.137 98.7022 185.1 98.7512 185.091C98.8174 185.105 98.8337 185.169 98.8664 185.216C100.346 187.463 101.826 189.71 103.307 191.956C103.621 192.434 103.935 192.912 104.252 193.39C104.292 193.472 104.348 193.545 104.418 193.606Z" fill="#258BCD"/>
</g>
<g opacity="0.05">
<path d="M94.6143 254.339L83.5341 260.501C83.1132 260.736 82.7638 261.073 82.5209 261.479C82.2781 261.885 82.1503 262.345 82.1504 262.813L82.1571 275.151C82.1567 275.62 82.2844 276.08 82.5273 276.486C82.7702 276.892 83.1197 277.229 83.5408 277.463L94.6316 283.638C95.0527 283.872 95.5304 283.995 96.0167 283.995C96.503 283.995 96.9807 283.872 97.4019 283.638L108.481 277.477C108.902 277.243 109.252 276.906 109.496 276.5C109.739 276.094 109.867 275.634 109.867 275.165L109.859 262.825C109.859 262.358 109.731 261.899 109.488 261.494C109.246 261.089 108.897 260.753 108.476 260.519L97.3836 254.341C96.9625 254.107 96.4848 253.983 95.9985 253.983C95.5122 253.983 95.0345 254.107 94.6133 254.341L94.6143 254.339Z" fill="white"/>
<path d="M90.9578 279.463C90.9752 279.383 91.0124 279.308 91.0664 279.245L101.011 262.997C101.058 262.923 101.1 262.847 101.138 262.778C101.109 262.73 101.077 262.739 101.048 262.739C99.6317 262.744 98.2153 262.753 96.799 262.751C96.738 262.751 96.6782 262.768 96.6279 262.801C96.5775 262.834 96.539 262.881 96.5176 262.936C95.4486 264.637 94.3785 266.338 93.3076 268.039L86.5004 278.859C86.4788 278.888 86.4589 278.919 86.4409 278.951C86.4005 279.024 86.3554 279.037 86.2748 278.992C85.9223 278.791 85.5661 278.598 85.1916 278.391L95.2914 262.787C95.2684 262.726 95.2251 262.74 95.1896 262.739C94.65 262.724 94.1074 262.702 93.5659 262.698C92.8059 262.676 92.0486 262.793 91.3343 263.044C90.684 263.276 90.1314 263.708 89.7623 264.274C87.9206 267.045 86.0683 269.814 84.2054 272.581C84.1766 272.624 84.1459 272.667 84.1152 272.71C84.0086 272.71 84.0249 272.626 84.0191 272.567C84.0096 272.478 84.0074 272.388 84.0124 272.298C84.0124 269.241 84.024 266.185 84.0028 263.128C83.9852 262.865 84.0502 262.602 84.1892 262.375C84.3282 262.148 84.5349 261.966 84.7825 261.853C87.2225 260.513 89.6462 259.146 92.0804 257.792C93.1654 257.188 94.2553 256.59 95.3317 255.973C95.5345 255.842 95.7732 255.772 96.0173 255.772C96.2615 255.772 96.5002 255.842 96.703 255.973C98.6859 257.093 100.686 258.188 102.678 259.291C104.18 260.124 105.684 260.956 107.191 261.788C107.297 261.847 107.403 261.911 107.51 261.973C107.686 262.063 107.832 262.2 107.929 262.367C108.027 262.534 108.073 262.725 108.062 262.916C108.065 266.241 108.065 269.566 108.062 272.89C108.069 272.972 108.06 273.055 108.034 273.134C107.916 273.244 107.872 273.12 107.828 273.06C107.649 272.817 107.488 272.562 107.322 272.311C105.99 270.303 104.653 268.297 103.31 266.293C102.859 265.615 102.403 264.941 101.957 264.259C101.854 264.1 101.834 264.099 101.731 264.268C101.057 265.364 100.385 266.461 99.7143 267.558C99.677 267.619 99.6608 267.69 99.6681 267.76C99.6753 267.83 99.7056 267.897 99.7546 267.949C100.309 268.812 100.862 269.676 101.415 270.539L104.245 274.949C104.629 275.545 105.013 276.14 105.397 276.734C105.469 276.814 105.509 276.916 105.51 277.021C105.434 277.167 105.274 277.206 105.142 277.275C104.924 277.426 104.684 277.547 104.43 277.632C104.293 277.6 104.244 277.482 104.179 277.384C103.303 276.066 102.437 274.744 101.567 273.424C100.671 272.067 99.7796 270.705 98.8779 269.35C98.7627 269.176 98.7454 269.176 98.6369 269.35C97.8543 270.618 97.0832 271.892 96.2987 273.158C96.2582 273.217 96.2382 273.287 96.2417 273.358C96.2451 273.428 96.2718 273.496 96.3179 273.551C97.3742 275.124 98.4055 276.702 99.4512 278.278C99.7392 278.719 100.037 279.156 100.323 279.598C100.378 279.684 100.456 279.769 100.404 279.887C100.13 280.093 99.8341 280.27 99.5213 280.415C98.5444 280.963 97.5672 281.51 96.5897 282.055C96.4336 282.153 96.2512 282.205 96.0649 282.205C95.8785 282.205 95.6962 282.153 95.5401 282.055C94.0991 281.253 92.6568 280.455 91.2133 279.659C91.1139 279.622 91.0277 279.557 90.9646 279.474" fill="#202A3B"/>
<path d="M107.989 273.158C107.989 273.076 107.996 272.995 107.996 272.912C107.996 269.596 107.996 266.279 107.996 262.962C108.008 262.761 107.959 262.561 107.855 262.386C107.751 262.211 107.596 262.069 107.409 261.978C103.794 259.984 100.18 257.982 96.5682 255.973C96.4054 255.872 96.2157 255.818 96.0218 255.818C95.828 255.818 95.6382 255.872 95.4755 255.973C93.4705 257.095 91.4623 258.214 89.4509 259.331C87.8371 260.229 86.2239 261.128 84.6113 262.029C84.4389 262.115 84.296 262.247 84.1999 262.41C84.1038 262.572 84.0586 262.758 84.0697 262.945C84.078 266.128 84.0822 269.311 84.0822 272.494C84.0822 272.564 84.0534 272.643 84.1177 272.705C83.7336 273.318 83.3159 273.908 82.9126 274.506L82.3067 275.406C82.2741 275.453 82.2357 275.498 82.1723 275.581C82.1675 275.481 82.1627 275.426 82.1627 275.371C82.1627 271.173 82.1627 266.975 82.1627 262.778C82.1526 262.312 82.2758 261.853 82.5188 261.45C82.7619 261.047 83.1154 260.716 83.5406 260.494C84.9445 259.692 86.3657 258.922 87.7772 258.131C88.9669 257.468 90.1557 256.799 91.3445 256.132C92.4555 255.513 93.5531 254.873 94.6833 254.283C95.1156 254.051 95.6045 253.935 96.099 253.948C96.5936 253.96 97.0756 254.1 97.4948 254.353C98.4023 254.849 99.3059 255.354 100.211 255.856C101.062 256.326 101.913 256.798 102.763 257.271L105.117 258.574L107.451 259.863C107.791 260.053 108.134 260.242 108.474 260.435C108.849 260.639 109.172 260.923 109.418 261.263C109.664 261.604 109.827 261.994 109.895 262.404C109.911 262.522 109.915 262.642 109.91 262.762C109.91 266.892 109.91 271.023 109.91 275.153C109.912 275.546 109.825 275.934 109.653 276.29C109.481 276.647 109.23 276.962 108.917 277.213C108.737 277.345 108.544 277.458 108.341 277.551C107.178 278.203 106.014 278.854 104.849 279.502C103.615 280.19 102.378 280.879 101.139 281.569C99.9483 282.235 98.7585 282.901 97.5697 283.568C97.2739 283.76 96.9411 283.892 96.5913 283.958C96.0098 284.067 95.4071 283.993 94.8724 283.748C94.279 283.441 93.7019 283.11 93.1181 282.787C92.3319 282.355 91.5478 281.921 90.7655 281.484C90.544 281.361 90.3225 281.237 90.101 281.114C90.0184 281.071 89.9637 281.022 90.0271 280.923C90.3151 280.449 90.609 279.973 90.8999 279.499C90.9114 279.482 90.9374 279.474 90.9566 279.462C91.2285 279.584 91.4916 279.724 91.744 279.88C93.0243 280.585 94.3027 281.294 95.5792 282.006C95.7266 282.096 95.898 282.143 96.0725 282.141C96.247 282.139 96.4172 282.089 96.5624 281.995C97.7733 281.312 98.9928 280.636 100.211 279.961C100.271 279.929 100.332 279.897 100.394 279.868C100.508 279.727 100.662 279.619 100.836 279.557C101.934 278.951 103.024 278.332 104.122 277.729C104.218 277.677 104.297 277.601 104.416 277.613L105.492 277.014C105.558 276.88 105.697 276.838 105.815 276.772C106.357 276.472 106.894 276.162 107.439 275.871C107.597 275.791 107.728 275.668 107.815 275.519C107.903 275.369 107.944 275.198 107.934 275.026C107.938 274.498 107.934 273.97 107.934 273.442C107.916 273.346 107.936 273.247 107.99 273.165" fill="#81B2D4"/>
<path d="M107.989 273.158C107.989 273.814 108.008 274.47 107.989 275.124C107.993 275.277 107.953 275.428 107.874 275.561C107.794 275.693 107.678 275.802 107.538 275.875C106.852 276.245 106.179 276.643 105.489 277.006C105.214 276.524 104.897 276.064 104.596 275.594C103.038 273.163 101.478 270.729 99.9156 268.293C99.8196 268.147 99.7361 267.996 99.6276 267.859C99.5943 267.82 99.5762 267.771 99.5762 267.72C99.5762 267.669 99.5943 267.62 99.6276 267.581C100.001 266.98 100.368 266.379 100.737 265.772L101.762 264.098C101.78 264.057 101.812 264.025 101.852 264.005C102.03 264.27 102.212 264.536 102.391 264.804C103.47 266.421 104.548 268.038 105.625 269.656C106.358 270.753 107.089 271.851 107.819 272.949C107.859 273.031 107.916 273.103 107.985 273.163" fill="#258BCD"/>
<path d="M104.418 277.606C103.973 277.889 103.5 278.127 103.042 278.389C102.209 278.86 101.371 279.323 100.537 279.787L100.395 279.864C100.385 279.789 100.352 279.719 100.299 279.664C99.5552 278.538 98.812 277.413 98.0694 276.288C97.458 275.363 96.8451 274.438 96.2305 273.514C96.1891 273.466 96.1648 273.407 96.1615 273.345C96.1582 273.284 96.1761 273.223 96.2123 273.171C97.0355 271.839 97.8536 270.504 98.6667 269.168C98.6859 269.137 98.7022 269.1 98.7512 269.091C98.8174 269.105 98.8337 269.169 98.8664 269.216C100.346 271.463 101.826 273.71 103.307 275.956C103.621 276.434 103.935 276.912 104.252 277.39C104.292 277.472 104.348 277.545 104.418 277.606Z" fill="#258BCD"/>
</g>
<g opacity="0.05">
<path d="M14.6143 2.33904L3.5341 8.50153C3.11321 8.73619 2.7638 9.07332 2.52094 9.4791C2.27807 9.88488 2.15028 10.345 2.15039 10.8134L2.15711 23.1513C2.15671 23.6197 2.28438 24.08 2.52727 24.4858C2.77017 24.8916 3.11973 25.2287 3.54082 25.4632L14.6316 31.6377C15.0527 31.8718 15.5304 31.9951 16.0167 31.9951C16.503 31.9951 16.9807 31.8718 17.4019 31.6377L28.4811 25.477C28.9024 25.2427 29.2523 24.9057 29.4955 24.4999C29.7387 24.094 29.8668 23.6337 29.8668 23.1652L29.8591 10.8254C29.859 10.3579 29.7311 9.89875 29.4884 9.49393C29.2457 9.0891 28.8967 8.75291 28.4763 8.5191L17.3836 2.34089C16.9625 2.10673 16.4848 1.98346 15.9985 1.98346C15.5122 1.98346 15.0345 2.10673 14.6133 2.34089L14.6143 2.33904Z" fill="white"/>
<path d="M10.9578 27.4634C10.9752 27.3833 11.0124 27.3084 11.0664 27.2452L21.0106 10.9974C21.0576 10.9225 21.0999 10.8467 21.1383 10.7783C21.1095 10.7302 21.0769 10.7394 21.048 10.7394C19.6317 10.744 18.2153 10.7533 16.799 10.7514C16.738 10.7506 16.6782 10.7679 16.6279 10.801C16.5775 10.8341 16.539 10.8814 16.5176 10.9364C15.4486 12.6367 14.3785 14.3376 13.3076 16.0391L6.50041 26.8586C6.47882 26.8884 6.45894 26.9192 6.44087 26.9511C6.40054 27.0241 6.35541 27.0371 6.27475 26.9918C5.92235 26.7911 5.5661 26.5978 5.1916 26.3907L15.2914 10.7875C15.2684 10.7255 15.2251 10.7403 15.1896 10.7394C14.65 10.7237 14.1074 10.7024 13.5659 10.6978C12.8059 10.6758 12.0486 10.7932 11.3343 11.0437C10.684 11.2758 10.1314 11.7081 9.76234 12.2736C7.9206 15.0453 6.0683 17.8143 4.20544 20.5805C4.17663 20.624 4.1459 20.6665 4.11517 20.71C4.00859 20.71 4.02491 20.6258 4.01915 20.5667C4.00964 20.4776 4.00739 20.3879 4.01243 20.2985C4.01243 17.2413 4.02395 14.185 4.00283 11.1278C3.98522 10.8646 4.05015 10.6024 4.18918 10.3752C4.32822 10.148 4.53494 9.96621 4.78254 9.85351C7.22251 8.51264 9.64616 7.14587 12.0804 5.79204C13.1654 5.18818 14.2553 4.58988 15.3317 3.97307C15.5345 3.84211 15.7732 3.77219 16.0173 3.77219C16.2615 3.77219 16.5002 3.84211 16.703 3.97307C18.6859 5.09294 20.686 6.18783 22.6776 7.29105C24.18 8.12394 25.6844 8.9562 27.1907 9.78786C27.2973 9.84704 27.4029 9.91085 27.5105 9.9728C27.6863 10.0629 27.8316 10.1996 27.9293 10.3668C28.027 10.534 28.0729 10.7245 28.0616 10.916C28.0648 14.2408 28.0648 17.5656 28.0616 20.8903C28.0694 20.9724 28.0599 21.0551 28.0338 21.1335C27.9157 21.2445 27.8725 21.1197 27.8283 21.0605C27.6487 20.8173 27.4884 20.562 27.3223 20.3114C25.9901 18.3029 24.6528 16.2968 23.3104 14.2932C22.8591 13.6154 22.4029 12.9412 21.9574 12.2588C21.8537 12.0997 21.8345 12.0988 21.7308 12.268C21.0567 13.3641 20.3845 14.4609 19.7143 15.5583C19.677 15.6191 19.6608 15.6899 19.6681 15.7602C19.6753 15.8305 19.7056 15.8968 19.7546 15.9494C20.309 16.8125 20.8624 17.6756 21.4149 18.5387L24.2447 22.9488C24.6288 23.545 25.0129 24.1402 25.397 24.7345C25.4686 24.8142 25.5087 24.9157 25.5103 25.0212C25.4344 25.1673 25.2741 25.2061 25.1415 25.2745C24.9237 25.4265 24.684 25.5471 24.43 25.6324C24.2927 25.6 24.2437 25.4817 24.1794 25.3837C23.3027 24.0659 22.4366 22.7444 21.5666 21.4239C20.6707 20.0673 19.7796 18.7052 18.8779 17.3504C18.7627 17.1756 18.7454 17.1756 18.6369 17.3504C17.8543 18.6182 17.0832 19.8916 16.2987 21.1576C16.2582 21.2167 16.2382 21.2868 16.2417 21.3576C16.2451 21.4284 16.2718 21.4963 16.3179 21.5515C17.3742 23.1236 18.4055 24.7021 19.4512 26.2779C19.7392 26.719 20.0369 27.1564 20.3231 27.5984C20.3778 27.6844 20.4556 27.7695 20.4037 27.8869C20.1299 28.0927 19.8341 28.2697 19.5213 28.415C18.5444 28.963 17.5672 29.5095 16.5897 30.0545C16.4336 30.1526 16.2512 30.2048 16.0649 30.2048C15.8785 30.2048 15.6962 30.1526 15.5401 30.0545C14.0991 29.2531 12.6568 28.4547 11.2133 27.6594C11.1139 27.6216 11.0277 27.5575 10.9646 27.4745" fill="#202A3B"/>
<path d="M27.9893 21.1585C27.9893 21.0762 27.996 20.9948 27.996 20.9125C27.996 17.5958 27.996 14.279 27.996 10.9623C28.0084 10.7611 27.9594 10.5607 27.8552 10.386C27.751 10.2112 27.596 10.0695 27.4093 9.97834C23.7937 7.98397 20.18 5.98221 16.5682 3.97305C16.4054 3.87169 16.2157 3.81777 16.0218 3.81777C15.828 3.81777 15.6382 3.87169 15.4755 3.97305C13.4705 5.09508 11.4623 6.21432 9.45091 7.3308C7.83706 8.22903 6.22386 9.1285 4.6113 10.0292C4.43888 10.1151 4.29598 10.2473 4.19988 10.4098C4.10377 10.5722 4.05857 10.758 4.06972 10.9447C4.07804 14.1277 4.08221 17.3106 4.08221 20.4936C4.08221 20.5639 4.0534 20.6434 4.11774 20.7054C3.73364 21.3175 3.31593 21.9075 2.91263 22.5058L2.30672 23.4056C2.27407 23.4528 2.23566 23.4981 2.17229 23.5813C2.16749 23.4814 2.16269 23.426 2.16269 23.3714C2.16269 19.1731 2.16269 14.9753 2.16269 10.7782C2.15256 10.3124 2.27578 9.85285 2.51883 9.44997C2.76188 9.04708 3.11539 8.71639 3.54063 8.49412C4.9445 7.69237 6.36566 6.92206 7.77721 6.13141C8.96695 5.46836 10.1557 4.79885 11.3445 4.13211C12.4555 3.51253 13.5531 2.87261 14.6833 2.28262C15.1156 2.051 15.6045 1.93534 16.099 1.9477C16.5936 1.96007 17.0756 2.1 17.4948 2.3529C18.4023 2.84949 19.3059 3.3544 20.2114 3.85561C21.0621 4.326 21.9126 4.79793 22.7627 5.27139L25.1172 6.57436L27.4506 7.86345C27.7915 8.05302 28.1343 8.24167 28.4742 8.43494C28.8493 8.63943 29.1717 8.92257 29.4178 9.26337C29.6638 9.60418 29.827 9.99392 29.8954 10.4037C29.9107 10.5224 29.9155 10.6421 29.9098 10.7616C29.9098 14.8921 29.9098 19.0226 29.9098 23.1532C29.9123 23.5458 29.8246 23.9342 29.6529 24.2904C29.4813 24.6466 29.2299 24.9618 28.9169 25.2135C28.7374 25.3447 28.5443 25.4578 28.3407 25.551C27.1782 26.2033 26.0144 26.8537 24.8493 27.5022C23.6151 28.1896 22.3783 28.8785 21.1389 29.569C19.9483 30.2348 18.7585 30.9013 17.5697 31.5683C17.2739 31.7597 16.9411 31.8921 16.5913 31.9576C16.0098 32.0671 15.4071 31.9935 14.8724 31.7477C14.279 31.4407 13.7019 31.1096 13.1181 30.7869C12.3319 30.3554 11.5478 29.921 10.7655 29.4839C10.544 29.3606 10.3225 29.2373 10.101 29.114C10.0184 29.0706 9.96368 29.0216 10.0271 28.9226C10.3151 28.4492 10.609 27.9729 10.8999 27.4994C10.9114 27.4819 10.9374 27.4745 10.9566 27.4625C11.2285 27.5842 11.4916 27.7236 11.744 27.8795C13.0243 28.5848 14.3027 29.2938 15.5792 30.0064C15.7266 30.0963 15.898 30.1431 16.0725 30.1411C16.247 30.1392 16.4172 30.0885 16.5624 29.9953C17.7733 29.3119 18.9928 28.636 20.2114 27.9609C20.2709 27.9285 20.3323 27.8971 20.3938 27.8684C20.5085 27.727 20.6617 27.6191 20.8365 27.5568C21.934 26.9511 23.0239 26.3324 24.1224 25.7286C24.2184 25.6768 24.2972 25.6009 24.4162 25.613L25.4917 25.0137C25.558 24.8796 25.6972 24.838 25.8153 24.7724C26.3569 24.4718 26.8937 24.162 27.4391 23.8708C27.5971 23.7907 27.7277 23.6685 27.8154 23.5187C27.9031 23.369 27.9442 23.1981 27.9336 23.0265C27.9384 22.4984 27.9336 21.9704 27.9336 21.4424C27.9162 21.3463 27.9364 21.2475 27.9903 21.165" fill="#81B2D4"/>
<path d="M27.9893 21.1585C27.9893 21.8141 28.0076 22.4697 27.9893 23.1235C27.9933 23.2767 27.9532 23.428 27.8736 23.5606C27.7939 23.6933 27.6778 23.8022 27.538 23.8753C26.8524 24.2452 26.1793 24.6429 25.4889 25.0063C25.2142 24.5236 24.8974 24.064 24.5958 23.5942C23.0377 21.1628 21.4776 18.7291 19.9156 16.2934C19.8196 16.1473 19.7361 15.9956 19.6276 15.8587C19.5943 15.8196 19.5762 15.7706 19.5762 15.72C19.5762 15.6695 19.5943 15.6205 19.6276 15.5813C20.0011 14.9802 20.3679 14.3792 20.7366 13.7716L21.7622 12.0978C21.7795 12.0574 21.8116 12.0245 21.8524 12.0053C22.0301 12.2698 22.2116 12.5361 22.3911 12.8043C23.4698 14.4208 24.5478 16.0378 25.6252 17.6555C26.3576 18.7535 27.0889 19.8515 27.8194 20.9495C27.8594 21.0306 27.9159 21.1032 27.9855 21.1631" fill="#258BCD"/>
<path d="M24.4175 25.6056C23.9729 25.8885 23.5005 26.1271 23.0415 26.3888C22.209 26.8604 21.3707 27.3228 20.5372 27.787L20.3951 27.8638C20.3853 27.7893 20.3517 27.7195 20.2991 27.6641C19.5552 26.5383 18.812 25.4129 18.0694 24.2878C17.458 23.3631 16.8451 22.4383 16.2305 21.5136C16.1891 21.4663 16.1648 21.4073 16.1615 21.3455C16.1582 21.2837 16.1761 21.2225 16.2123 21.1714C17.0355 19.8386 17.8536 18.5042 18.6667 17.1682C18.6859 17.1368 18.7022 17.0998 18.7512 17.0915C18.8174 17.1053 18.8337 17.1691 18.8664 17.2163C20.3458 19.4634 21.8258 21.7099 23.3065 23.9558C23.6215 24.4339 23.9355 24.912 24.2524 25.3901C24.2917 25.472 24.3479 25.5453 24.4175 25.6056Z" fill="#258BCD"/>
</g>
<g opacity="0.05">
<path d="M14.6143 86.339L3.5341 92.5015C3.11321 92.7362 2.7638 93.0733 2.52094 93.4791C2.27807 93.8849 2.15028 94.345 2.15039 94.8134L2.15711 107.151C2.15671 107.62 2.28438 108.08 2.52727 108.486C2.77017 108.892 3.11973 109.229 3.54082 109.463L14.6316 115.638C15.0527 115.872 15.5304 115.995 16.0167 115.995C16.503 115.995 16.9807 115.872 17.4019 115.638L28.4811 109.477C28.9024 109.243 29.2523 108.906 29.4955 108.5C29.7387 108.094 29.8668 107.634 29.8668 107.165L29.8591 94.8254C29.859 94.3579 29.7311 93.8988 29.4884 93.4939C29.2457 93.0891 28.8967 92.7529 28.4763 92.5191L17.3836 86.3409C16.9625 86.1067 16.4848 85.9835 15.9985 85.9835C15.5122 85.9835 15.0345 86.1067 14.6133 86.3409L14.6143 86.339Z" fill="white"/>
<path d="M10.9578 111.463C10.9752 111.383 11.0124 111.308 11.0664 111.245L21.0106 94.9974C21.0576 94.9225 21.0999 94.8467 21.1383 94.7783C21.1095 94.7302 21.0769 94.7394 21.048 94.7394C19.6317 94.744 18.2153 94.7533 16.799 94.7514C16.738 94.7506 16.6782 94.7679 16.6279 94.801C16.5775 94.8341 16.539 94.8814 16.5176 94.9364C15.4486 96.6367 14.3785 98.3376 13.3076 100.039L6.50041 110.859C6.47882 110.888 6.45894 110.919 6.44087 110.951C6.40054 111.024 6.35541 111.037 6.27475 110.992C5.92235 110.791 5.5661 110.598 5.1916 110.391L15.2914 94.7875C15.2684 94.7255 15.2251 94.7403 15.1896 94.7394C14.65 94.7237 14.1074 94.7024 13.5659 94.6978C12.8059 94.6758 12.0486 94.7932 11.3343 95.0437C10.684 95.2758 10.1314 95.7081 9.76234 96.2736C7.9206 99.0453 6.0683 101.814 4.20544 104.581C4.17663 104.624 4.1459 104.667 4.11517 104.71C4.00859 104.71 4.02491 104.626 4.01915 104.567C4.00964 104.478 4.00739 104.388 4.01243 104.298C4.01243 101.241 4.02395 98.185 4.00283 95.1278C3.98522 94.8646 4.05015 94.6024 4.18918 94.3752C4.32822 94.148 4.53494 93.9662 4.78254 93.8535C7.22251 92.5126 9.64616 91.1459 12.0804 89.792C13.1654 89.1882 14.2553 88.5899 15.3317 87.9731C15.5345 87.8421 15.7732 87.7722 16.0173 87.7722C16.2615 87.7722 16.5002 87.8421 16.703 87.9731C18.6859 89.0929 20.686 90.1878 22.6776 91.291C24.18 92.1239 25.6844 92.9562 27.1907 93.7879C27.2973 93.847 27.4029 93.9108 27.5105 93.9728C27.6863 94.0629 27.8316 94.1996 27.9293 94.3668C28.027 94.534 28.0729 94.7245 28.0616 94.916C28.0648 98.2408 28.0648 101.566 28.0616 104.89C28.0694 104.972 28.0599 105.055 28.0338 105.134C27.9157 105.244 27.8725 105.12 27.8283 105.06C27.6487 104.817 27.4884 104.562 27.3223 104.311C25.9901 102.303 24.6528 100.297 23.3104 98.2932C22.8591 97.6154 22.4029 96.9412 21.9574 96.2588C21.8537 96.0997 21.8345 96.0988 21.7308 96.268C21.0567 97.3641 20.3845 98.4609 19.7143 99.5583C19.677 99.6191 19.6608 99.6899 19.6681 99.7602C19.6753 99.8305 19.7056 99.8968 19.7546 99.9494C20.309 100.813 20.8624 101.676 21.4149 102.539L24.2447 106.949C24.6288 107.545 25.0129 108.14 25.397 108.734C25.4686 108.814 25.5087 108.916 25.5103 109.021C25.4344 109.167 25.2741 109.206 25.1415 109.275C24.9237 109.427 24.684 109.547 24.43 109.632C24.2927 109.6 24.2437 109.482 24.1794 109.384C23.3027 108.066 22.4366 106.744 21.5666 105.424C20.6707 104.067 19.7796 102.705 18.8779 101.35C18.7627 101.176 18.7454 101.176 18.6369 101.35C17.8543 102.618 17.0832 103.892 16.2987 105.158C16.2582 105.217 16.2382 105.287 16.2417 105.358C16.2451 105.428 16.2718 105.496 16.3179 105.552C17.3742 107.124 18.4055 108.702 19.4512 110.278C19.7392 110.719 20.0369 111.156 20.3231 111.598C20.3778 111.684 20.4556 111.769 20.4037 111.887C20.1299 112.093 19.8341 112.27 19.5213 112.415C18.5444 112.963 17.5672 113.51 16.5897 114.055C16.4336 114.153 16.2512 114.205 16.0649 114.205C15.8785 114.205 15.6962 114.153 15.5401 114.055C14.0991 113.253 12.6568 112.455 11.2133 111.659C11.1139 111.622 11.0277 111.557 10.9646 111.474" fill="#202A3B"/>
<path d="M27.9893 105.158C27.9893 105.076 27.996 104.995 27.996 104.913C27.996 101.596 27.996 98.279 27.996 94.9623C28.0084 94.7611 27.9594 94.5607 27.8552 94.386C27.751 94.2112 27.596 94.0695 27.4093 93.9783C23.7937 91.984 20.18 89.9822 16.5682 87.9731C16.4054 87.8717 16.2157 87.8178 16.0218 87.8178C15.828 87.8178 15.6382 87.8717 15.4755 87.9731C13.4705 89.0951 11.4623 90.2143 9.45091 91.3308C7.83706 92.229 6.22386 93.1285 4.6113 94.0292C4.43888 94.1151 4.29598 94.2473 4.19988 94.4098C4.10377 94.5722 4.05857 94.758 4.06972 94.9447C4.07804 98.1277 4.08221 101.311 4.08221 104.494C4.08221 104.564 4.0534 104.643 4.11774 104.705C3.73364 105.318 3.31593 105.908 2.91263 106.506L2.30672 107.406C2.27407 107.453 2.23566 107.498 2.17229 107.581C2.16749 107.481 2.16269 107.426 2.16269 107.371C2.16269 103.173 2.16269 98.9753 2.16269 94.7782C2.15256 94.3124 2.27578 93.8529 2.51883 93.45C2.76188 93.0471 3.11539 92.7164 3.54063 92.4941C4.9445 91.6924 6.36566 90.9221 7.77721 90.1314C8.96695 89.4684 10.1557 88.7989 11.3445 88.1321C12.4555 87.5125 13.5531 86.8726 14.6833 86.2826C15.1156 86.051 15.6045 85.9353 16.099 85.9477C16.5936 85.9601 17.0756 86.1 17.4948 86.3529C18.4023 86.8495 19.3059 87.3544 20.2114 87.8556C21.0621 88.326 21.9126 88.7979 22.7627 89.2714L25.1172 90.5744L27.4506 91.8634C27.7915 92.053 28.1343 92.2417 28.4742 92.4349C28.8493 92.6394 29.1717 92.9226 29.4178 93.2634C29.6638 93.6042 29.827 93.9939 29.8954 94.4037C29.9107 94.5224 29.9155 94.6421 29.9098 94.7616C29.9098 98.8921 29.9098 103.023 29.9098 107.153C29.9123 107.546 29.8246 107.934 29.6529 108.29C29.4813 108.647 29.2299 108.962 28.9169 109.213C28.7374 109.345 28.5443 109.458 28.3407 109.551C27.1782 110.203 26.0144 110.854 24.8493 111.502C23.6151 112.19 22.3783 112.879 21.1389 113.569C19.9483 114.235 18.7585 114.901 17.5697 115.568C17.2739 115.76 16.9411 115.892 16.5913 115.958C16.0098 116.067 15.4071 115.994 14.8724 115.748C14.279 115.441 13.7019 115.11 13.1181 114.787C12.3319 114.355 11.5478 113.921 10.7655 113.484C10.544 113.361 10.3225 113.237 10.101 113.114C10.0184 113.071 9.96368 113.022 10.0271 112.923C10.3151 112.449 10.609 111.973 10.8999 111.499C10.9114 111.482 10.9374 111.474 10.9566 111.462C11.2285 111.584 11.4916 111.724 11.744 111.88C13.0243 112.585 14.3027 113.294 15.5792 114.006C15.7266 114.096 15.898 114.143 16.0725 114.141C16.247 114.139 16.4172 114.089 16.5624 113.995C17.7733 113.312 18.9928 112.636 20.2114 111.961C20.2709 111.929 20.3323 111.897 20.3938 111.868C20.5085 111.727 20.6617 111.619 20.8365 111.557C21.934 110.951 23.0239 110.332 24.1224 109.729C24.2184 109.677 24.2972 109.601 24.4162 109.613L25.4917 109.014C25.558 108.88 25.6972 108.838 25.8153 108.772C26.3569 108.472 26.8937 108.162 27.4391 107.871C27.5971 107.791 27.7277 107.668 27.8154 107.519C27.9031 107.369 27.9442 107.198 27.9336 107.026C27.9384 106.498 27.9336 105.97 27.9336 105.442C27.9162 105.346 27.9364 105.247 27.9903 105.165" fill="#81B2D4"/>
<path d="M27.9893 105.158C27.9893 105.814 28.0076 106.47 27.9893 107.124C27.9933 107.277 27.9532 107.428 27.8736 107.561C27.7939 107.693 27.6778 107.802 27.538 107.875C26.8524 108.245 26.1793 108.643 25.4889 109.006C25.2142 108.524 24.8974 108.064 24.5958 107.594C23.0377 105.163 21.4776 102.729 19.9156 100.293C19.8196 100.147 19.7361 99.9956 19.6276 99.8587C19.5943 99.8196 19.5762 99.7706 19.5762 99.72C19.5762 99.6695 19.5943 99.6205 19.6276 99.5813C20.0011 98.9802 20.3679 98.3792 20.7366 97.7716L21.7622 96.0978C21.7795 96.0574 21.8116 96.0245 21.8524 96.0053C22.0301 96.2698 22.2116 96.5361 22.3911 96.8043C23.4698 98.4208 24.5478 100.038 25.6252 101.656C26.3576 102.754 27.0889 103.851 27.8194 104.949C27.8594 105.031 27.9159 105.103 27.9855 105.163" fill="#258BCD"/>
<path d="M24.4175 109.606C23.9729 109.889 23.5005 110.127 23.0415 110.389C22.209 110.86 21.3707 111.323 20.5372 111.787L20.3951 111.864C20.3853 111.789 20.3517 111.719 20.2991 111.664C19.5552 110.538 18.812 109.413 18.0694 108.288C17.458 107.363 16.8451 106.438 16.2305 105.514C16.1891 105.466 16.1648 105.407 16.1615 105.345C16.1582 105.284 16.1761 105.223 16.2123 105.171C17.0355 103.839 17.8536 102.504 18.6667 101.168C18.6859 101.137 18.7022 101.1 18.7512 101.091C18.8174 101.105 18.8337 101.169 18.8664 101.216C20.3458 103.463 21.8258 105.71 23.3065 107.956C23.6215 108.434 23.9355 108.912 24.2524 109.39C24.2917 109.472 24.3479 109.545 24.4175 109.606Z" fill="#258BCD"/>
</g>
<g opacity="0.05">
<path d="M14.6143 170.339L3.5341 176.501C3.11321 176.736 2.7638 177.073 2.52094 177.479C2.27807 177.885 2.15028 178.345 2.15039 178.813L2.15711 191.151C2.15671 191.62 2.28438 192.08 2.52727 192.486C2.77017 192.892 3.11973 193.229 3.54082 193.463L14.6316 199.638C15.0527 199.872 15.5304 199.995 16.0167 199.995C16.503 199.995 16.9807 199.872 17.4019 199.638L28.4811 193.477C28.9024 193.243 29.2523 192.906 29.4955 192.5C29.7387 192.094 29.8668 191.634 29.8668 191.165L29.8591 178.825C29.859 178.358 29.7311 177.899 29.4884 177.494C29.2457 177.089 28.8967 176.753 28.4763 176.519L17.3836 170.341C16.9625 170.107 16.4848 169.983 15.9985 169.983C15.5122 169.983 15.0345 170.107 14.6133 170.341L14.6143 170.339Z" fill="white"/>
<path d="M10.9578 195.463C10.9752 195.383 11.0124 195.308 11.0664 195.245L21.0106 178.997C21.0576 178.923 21.0999 178.847 21.1383 178.778C21.1095 178.73 21.0769 178.739 21.048 178.739C19.6317 178.744 18.2153 178.753 16.799 178.751C16.738 178.751 16.6782 178.768 16.6279 178.801C16.5775 178.834 16.539 178.881 16.5176 178.936C15.4486 180.637 14.3785 182.338 13.3076 184.039L6.50041 194.859C6.47882 194.888 6.45894 194.919 6.44087 194.951C6.40054 195.024 6.35541 195.037 6.27475 194.992C5.92235 194.791 5.5661 194.598 5.1916 194.391L15.2914 178.787C15.2684 178.726 15.2251 178.74 15.1896 178.739C14.65 178.724 14.1074 178.702 13.5659 178.698C12.8059 178.676 12.0486 178.793 11.3343 179.044C10.684 179.276 10.1314 179.708 9.76234 180.274C7.9206 183.045 6.0683 185.814 4.20544 188.581C4.17663 188.624 4.1459 188.667 4.11517 188.71C4.00859 188.71 4.02491 188.626 4.01915 188.567C4.00964 188.478 4.00739 188.388 4.01243 188.298C4.01243 185.241 4.02395 182.185 4.00283 179.128C3.98522 178.865 4.05015 178.602 4.18918 178.375C4.32822 178.148 4.53494 177.966 4.78254 177.853C7.22251 176.513 9.64616 175.146 12.0804 173.792C13.1654 173.188 14.2553 172.59 15.3317 171.973C15.5345 171.842 15.7732 171.772 16.0173 171.772C16.2615 171.772 16.5002 171.842 16.703 171.973C18.6859 173.093 20.686 174.188 22.6776 175.291C24.18 176.124 25.6844 176.956 27.1907 177.788C27.2973 177.847 27.4029 177.911 27.5105 177.973C27.6863 178.063 27.8316 178.2 27.9293 178.367C28.027 178.534 28.0729 178.725 28.0616 178.916C28.0648 182.241 28.0648 185.566 28.0616 188.89C28.0694 188.972 28.0599 189.055 28.0338 189.134C27.9157 189.244 27.8725 189.12 27.8283 189.06C27.6487 188.817 27.4884 188.562 27.3223 188.311C25.9901 186.303 24.6528 184.297 23.3104 182.293C22.8591 181.615 22.4029 180.941 21.9574 180.259C21.8537 180.1 21.8345 180.099 21.7308 180.268C21.0567 181.364 20.3845 182.461 19.7143 183.558C19.677 183.619 19.6608 183.69 19.6681 183.76C19.6753 183.83 19.7056 183.897 19.7546 183.949C20.309 184.812 20.8624 185.676 21.4149 186.539L24.2447 190.949C24.6288 191.545 25.0129 192.14 25.397 192.734C25.4686 192.814 25.5087 192.916 25.5103 193.021C25.4344 193.167 25.2741 193.206 25.1415 193.275C24.9237 193.426 24.684 193.547 24.43 193.632C24.2927 193.6 24.2437 193.482 24.1794 193.384C23.3027 192.066 22.4366 190.744 21.5666 189.424C20.6707 188.067 19.7796 186.705 18.8779 185.35C18.7627 185.176 18.7454 185.176 18.6369 185.35C17.8543 186.618 17.0832 187.892 16.2987 189.158C16.2582 189.217 16.2382 189.287 16.2417 189.358C16.2451 189.428 16.2718 189.496 16.3179 189.551C17.3742 191.124 18.4055 192.702 19.4512 194.278C19.7392 194.719 20.0369 195.156 20.3231 195.598C20.3778 195.684 20.4556 195.769 20.4037 195.887C20.1299 196.093 19.8341 196.27 19.5213 196.415C18.5444 196.963 17.5672 197.51 16.5897 198.055C16.4336 198.153 16.2512 198.205 16.0649 198.205C15.8785 198.205 15.6962 198.153 15.5401 198.055C14.0991 197.253 12.6568 196.455 11.2133 195.659C11.1139 195.622 11.0277 195.557 10.9646 195.474" fill="#202A3B"/>
<path d="M27.9893 189.158C27.9893 189.076 27.996 188.995 27.996 188.912C27.996 185.596 27.996 182.279 27.996 178.962C28.0084 178.761 27.9594 178.561 27.8552 178.386C27.751 178.211 27.596 178.069 27.4093 177.978C23.7937 175.984 20.18 173.982 16.5682 171.973C16.4054 171.872 16.2157 171.818 16.0218 171.818C15.828 171.818 15.6382 171.872 15.4755 171.973C13.4705 173.095 11.4623 174.214 9.45091 175.331C7.83706 176.229 6.22386 177.128 4.6113 178.029C4.43888 178.115 4.29598 178.247 4.19988 178.41C4.10377 178.572 4.05857 178.758 4.06972 178.945C4.07804 182.128 4.08221 185.311 4.08221 188.494C4.08221 188.564 4.0534 188.643 4.11774 188.705C3.73364 189.318 3.31593 189.908 2.91263 190.506L2.30672 191.406C2.27407 191.453 2.23566 191.498 2.17229 191.581C2.16749 191.481 2.16269 191.426 2.16269 191.371C2.16269 187.173 2.16269 182.975 2.16269 178.778C2.15256 178.312 2.27578 177.853 2.51883 177.45C2.76188 177.047 3.11539 176.716 3.54063 176.494C4.9445 175.692 6.36566 174.922 7.77721 174.131C8.96695 173.468 10.1557 172.799 11.3445 172.132C12.4555 171.513 13.5531 170.873 14.6833 170.283C15.1156 170.051 15.6045 169.935 16.099 169.948C16.5936 169.96 17.0756 170.1 17.4948 170.353C18.4023 170.849 19.3059 171.354 20.2114 171.856C21.0621 172.326 21.9126 172.798 22.7627 173.271L25.1172 174.574L27.4506 175.863C27.7915 176.053 28.1343 176.242 28.4742 176.435C28.8493 176.639 29.1717 176.923 29.4178 177.263C29.6638 177.604 29.827 177.994 29.8954 178.404C29.9107 178.522 29.9155 178.642 29.9098 178.762C29.9098 182.892 29.9098 187.023 29.9098 191.153C29.9123 191.546 29.8246 191.934 29.6529 192.29C29.4813 192.647 29.2299 192.962 28.9169 193.213C28.7374 193.345 28.5443 193.458 28.3407 193.551C27.1782 194.203 26.0144 194.854 24.8493 195.502C23.6151 196.19 22.3783 196.879 21.1389 197.569C19.9483 198.235 18.7585 198.901 17.5697 199.568C17.2739 199.76 16.9411 199.892 16.5913 199.958C16.0098 200.067 15.4071 199.993 14.8724 199.748C14.279 199.441 13.7019 199.11 13.1181 198.787C12.3319 198.355 11.5478 197.921 10.7655 197.484C10.544 197.361 10.3225 197.237 10.101 197.114C10.0184 197.071 9.96368 197.022 10.0271 196.923C10.3151 196.449 10.609 195.973 10.8999 195.499C10.9114 195.482 10.9374 195.474 10.9566 195.462C11.2285 195.584 11.4916 195.724 11.744 195.88C13.0243 196.585 14.3027 197.294 15.5792 198.006C15.7266 198.096 15.898 198.143 16.0725 198.141C16.247 198.139 16.4172 198.089 16.5624 197.995C17.7733 197.312 18.9928 196.636 20.2114 195.961C20.2709 195.929 20.3323 195.897 20.3938 195.868C20.5085 195.727 20.6617 195.619 20.8365 195.557C21.934 194.951 23.0239 194.332 24.1224 193.729C24.2184 193.677 24.2972 193.601 24.4162 193.613L25.4917 193.014C25.558 192.88 25.6972 192.838 25.8153 192.772C26.3569 192.472 26.8937 192.162 27.4391 191.871C27.5971 191.791 27.7277 191.668 27.8154 191.519C27.9031 191.369 27.9442 191.198 27.9336 191.026C27.9384 190.498 27.9336 189.97 27.9336 189.442C27.9162 189.346 27.9364 189.247 27.9903 189.165" fill="#81B2D4"/>
<path d="M27.9893 189.158C27.9893 189.814 28.0076 190.47 27.9893 191.124C27.9933 191.277 27.9532 191.428 27.8736 191.561C27.7939 191.693 27.6778 191.802 27.538 191.875C26.8524 192.245 26.1793 192.643 25.4889 193.006C25.2142 192.524 24.8974 192.064 24.5958 191.594C23.0377 189.163 21.4776 186.729 19.9156 184.293C19.8196 184.147 19.7361 183.996 19.6276 183.859C19.5943 183.82 19.5762 183.771 19.5762 183.72C19.5762 183.669 19.5943 183.62 19.6276 183.581C20.0011 182.98 20.3679 182.379 20.7366 181.772L21.7622 180.098C21.7795 180.057 21.8116 180.025 21.8524 180.005C22.0301 180.27 22.2116 180.536 22.3911 180.804C23.4698 182.421 24.5478 184.038 25.6252 185.656C26.3576 186.753 27.0889 187.851 27.8194 188.949C27.8594 189.031 27.9159 189.103 27.9855 189.163" fill="#258BCD"/>
<path d="M24.4175 193.606C23.9729 193.889 23.5005 194.127 23.0415 194.389C22.209 194.86 21.3707 195.323 20.5372 195.787L20.3951 195.864C20.3853 195.789 20.3517 195.719 20.2991 195.664C19.5552 194.538 18.812 193.413 18.0694 192.288C17.458 191.363 16.8451 190.438 16.2305 189.514C16.1891 189.466 16.1648 189.407 16.1615 189.345C16.1582 189.284 16.1761 189.223 16.2123 189.171C17.0355 187.839 17.8536 186.504 18.6667 185.168C18.6859 185.137 18.7022 185.1 18.7512 185.091C18.8174 185.105 18.8337 185.169 18.8664 185.216C20.3458 187.463 21.8258 189.71 23.3065 191.956C23.6215 192.434 23.9355 192.912 24.2524 193.39C24.2917 193.472 24.3479 193.545 24.4175 193.606Z" fill="#258BCD"/>
</g>
<g opacity="0.05">
<path d="M14.6143 254.339L3.5341 260.501C3.11321 260.736 2.7638 261.073 2.52094 261.479C2.27807 261.885 2.15028 262.345 2.15039 262.813L2.15711 275.151C2.15671 275.62 2.28438 276.08 2.52727 276.486C2.77017 276.892 3.11973 277.229 3.54082 277.463L14.6316 283.638C15.0527 283.872 15.5304 283.995 16.0167 283.995C16.503 283.995 16.9807 283.872 17.4019 283.638L28.4811 277.477C28.9024 277.243 29.2523 276.906 29.4955 276.5C29.7387 276.094 29.8668 275.634 29.8668 275.165L29.8591 262.825C29.859 262.358 29.7311 261.899 29.4884 261.494C29.2457 261.089 28.8967 260.753 28.4763 260.519L17.3836 254.341C16.9625 254.107 16.4848 253.983 15.9985 253.983C15.5122 253.983 15.0345 254.107 14.6133 254.341L14.6143 254.339Z" fill="white"/>
<path d="M10.9578 279.463C10.9752 279.383 11.0124 279.308 11.0664 279.245L21.0106 262.997C21.0576 262.923 21.0999 262.847 21.1383 262.778C21.1095 262.73 21.0769 262.739 21.048 262.739C19.6317 262.744 18.2153 262.753 16.799 262.751C16.738 262.751 16.6782 262.768 16.6279 262.801C16.5775 262.834 16.539 262.881 16.5176 262.936C15.4486 264.637 14.3785 266.338 13.3076 268.039L6.50041 278.859C6.47882 278.888 6.45894 278.919 6.44087 278.951C6.40054 279.024 6.35541 279.037 6.27475 278.992C5.92235 278.791 5.5661 278.598 5.1916 278.391L15.2914 262.787C15.2684 262.726 15.2251 262.74 15.1896 262.739C14.65 262.724 14.1074 262.702 13.5659 262.698C12.8059 262.676 12.0486 262.793 11.3343 263.044C10.684 263.276 10.1314 263.708 9.76234 264.274C7.9206 267.045 6.0683 269.814 4.20544 272.581C4.17663 272.624 4.1459 272.667 4.11517 272.71C4.00859 272.71 4.02491 272.626 4.01915 272.567C4.00964 272.478 4.00739 272.388 4.01243 272.298C4.01243 269.241 4.02395 266.185 4.00283 263.128C3.98522 262.865 4.05015 262.602 4.18918 262.375C4.32822 262.148 4.53494 261.966 4.78254 261.853C7.22251 260.513 9.64616 259.146 12.0804 257.792C13.1654 257.188 14.2553 256.59 15.3317 255.973C15.5345 255.842 15.7732 255.772 16.0173 255.772C16.2615 255.772 16.5002 255.842 16.703 255.973C18.6859 257.093 20.686 258.188 22.6776 259.291C24.18 260.124 25.6844 260.956 27.1907 261.788C27.2973 261.847 27.4029 261.911 27.5105 261.973C27.6863 262.063 27.8316 262.2 27.9293 262.367C28.027 262.534 28.0729 262.725 28.0616 262.916C28.0648 266.241 28.0648 269.566 28.0616 272.89C28.0694 272.972 28.0599 273.055 28.0338 273.134C27.9157 273.244 27.8725 273.12 27.8283 273.06C27.6487 272.817 27.4884 272.562 27.3223 272.311C25.9901 270.303 24.6528 268.297 23.3104 266.293C22.8591 265.615 22.4029 264.941 21.9574 264.259C21.8537 264.1 21.8345 264.099 21.7308 264.268C21.0567 265.364 20.3845 266.461 19.7143 267.558C19.677 267.619 19.6608 267.69 19.6681 267.76C19.6753 267.83 19.7056 267.897 19.7546 267.949C20.309 268.812 20.8624 269.676 21.4149 270.539L24.2447 274.949C24.6288 275.545 25.0129 276.14 25.397 276.734C25.4686 276.814 25.5087 276.916 25.5103 277.021C25.4344 277.167 25.2741 277.206 25.1415 277.275C24.9237 277.426 24.684 277.547 24.43 277.632C24.2927 277.6 24.2437 277.482 24.1794 277.384C23.3027 276.066 22.4366 274.744 21.5666 273.424C20.6707 272.067 19.7796 270.705 18.8779 269.35C18.7627 269.176 18.7454 269.176 18.6369 269.35C17.8543 270.618 17.0832 271.892 16.2987 273.158C16.2582 273.217 16.2382 273.287 16.2417 273.358C16.2451 273.428 16.2718 273.496 16.3179 273.551C17.3742 275.124 18.4055 276.702 19.4512 278.278C19.7392 278.719 20.0369 279.156 20.3231 279.598C20.3778 279.684 20.4556 279.769 20.4037 279.887C20.1299 280.093 19.8341 280.27 19.5213 280.415C18.5444 280.963 17.5672 281.51 16.5897 282.055C16.4336 282.153 16.2512 282.205 16.0649 282.205C15.8785 282.205 15.6962 282.153 15.5401 282.055C14.0991 281.253 12.6568 280.455 11.2133 279.659C11.1139 279.622 11.0277 279.557 10.9646 279.474" fill="#202A3B"/>
<path d="M27.9893 273.158C27.9893 273.076 27.996 272.995 27.996 272.912C27.996 269.596 27.996 266.279 27.996 262.962C28.0084 262.761 27.9594 262.561 27.8552 262.386C27.751 262.211 27.596 262.069 27.4093 261.978C23.7937 259.984 20.18 257.982 16.5682 255.973C16.4054 255.872 16.2157 255.818 16.0218 255.818C15.828 255.818 15.6382 255.872 15.4755 255.973C13.4705 257.095 11.4623 258.214 9.45091 259.331C7.83706 260.229 6.22386 261.128 4.6113 262.029C4.43888 262.115 4.29598 262.247 4.19988 262.41C4.10377 262.572 4.05857 262.758 4.06972 262.945C4.07804 266.128 4.08221 269.311 4.08221 272.494C4.08221 272.564 4.0534 272.643 4.11774 272.705C3.73364 273.318 3.31593 273.908 2.91263 274.506L2.30672 275.406C2.27407 275.453 2.23566 275.498 2.17229 275.581C2.16749 275.481 2.16269 275.426 2.16269 275.371C2.16269 271.173 2.16269 266.975 2.16269 262.778C2.15256 262.312 2.27578 261.853 2.51883 261.45C2.76188 261.047 3.11539 260.716 3.54063 260.494C4.9445 259.692 6.36566 258.922 7.77721 258.131C8.96695 257.468 10.1557 256.799 11.3445 256.132C12.4555 255.513 13.5531 254.873 14.6833 254.283C15.1156 254.051 15.6045 253.935 16.099 253.948C16.5936 253.96 17.0756 254.1 17.4948 254.353C18.4023 254.849 19.3059 255.354 20.2114 255.856C21.0621 256.326 21.9126 256.798 22.7627 257.271L25.1172 258.574L27.4506 259.863C27.7915 260.053 28.1343 260.242 28.4742 260.435C28.8493 260.639 29.1717 260.923 29.4178 261.263C29.6638 261.604 29.827 261.994 29.8954 262.404C29.9107 262.522 29.9155 262.642 29.9098 262.762C29.9098 266.892 29.9098 271.023 29.9098 275.153C29.9123 275.546 29.8246 275.934 29.6529 276.29C29.4813 276.647 29.2299 276.962 28.9169 277.213C28.7374 277.345 28.5443 277.458 28.3407 277.551C27.1782 278.203 26.0144 278.854 24.8493 279.502C23.6151 280.19 22.3783 280.879 21.1389 281.569C19.9483 282.235 18.7585 282.901 17.5697 283.568C17.2739 283.76 16.9411 283.892 16.5913 283.958C16.0098 284.067 15.4071 283.993 14.8724 283.748C14.279 283.441 13.7019 283.11 13.1181 282.787C12.3319 282.355 11.5478 281.921 10.7655 281.484C10.544 281.361 10.3225 281.237 10.101 281.114C10.0184 281.071 9.96368 281.022 10.0271 280.923C10.3151 280.449 10.609 279.973 10.8999 279.499C10.9114 279.482 10.9374 279.474 10.9566 279.462C11.2285 279.584 11.4916 279.724 11.744 279.88C13.0243 280.585 14.3027 281.294 15.5792 282.006C15.7266 282.096 15.898 282.143 16.0725 282.141C16.247 282.139 16.4172 282.089 16.5624 281.995C17.7733 281.312 18.9928 280.636 20.2114 279.961C20.2709 279.929 20.3323 279.897 20.3938 279.868C20.5085 279.727 20.6617 279.619 20.8365 279.557C21.934 278.951 23.0239 278.332 24.1224 277.729C24.2184 277.677 24.2972 277.601 24.4162 277.613L25.4917 277.014C25.558 276.88 25.6972 276.838 25.8153 276.772C26.3569 276.472 26.8937 276.162 27.4391 275.871C27.5971 275.791 27.7277 275.668 27.8154 275.519C27.9031 275.369 27.9442 275.198 27.9336 275.026C27.9384 274.498 27.9336 273.97 27.9336 273.442C27.9162 273.346 27.9364 273.247 27.9903 273.165" fill="#81B2D4"/>
<path d="M27.9893 273.158C27.9893 273.814 28.0076 274.47 27.9893 275.124C27.9933 275.277 27.9532 275.428 27.8736 275.561C27.7939 275.693 27.6778 275.802 27.538 275.875C26.8524 276.245 26.1793 276.643 25.4889 277.006C25.2142 276.524 24.8974 276.064 24.5958 275.594C23.0377 273.163 21.4776 270.729 19.9156 268.293C19.8196 268.147 19.7361 267.996 19.6276 267.859C19.5943 267.82 19.5762 267.771 19.5762 267.72C19.5762 267.669 19.5943 267.62 19.6276 267.581C20.0011 266.98 20.3679 266.379 20.7366 265.772L21.7622 264.098C21.7795 264.057 21.8116 264.025 21.8524 264.005C22.0301 264.27 22.2116 264.536 22.3911 264.804C23.4698 266.421 24.5478 268.038 25.6252 269.656C26.3576 270.753 27.0889 271.851 27.8194 272.949C27.8594 273.031 27.9159 273.103 27.9855 273.163" fill="#258BCD"/>
<path d="M24.4175 277.606C23.9729 277.889 23.5005 278.127 23.0415 278.389C22.209 278.86 21.3707 279.323 20.5372 279.787L20.3951 279.864C20.3853 279.789 20.3517 279.719 20.2991 279.664C19.5552 278.538 18.812 277.413 18.0694 276.288C17.458 275.363 16.8451 274.438 16.2305 273.514C16.1891 273.466 16.1648 273.407 16.1615 273.345C16.1582 273.284 16.1761 273.223 16.2123 273.171C17.0355 271.839 17.8536 270.504 18.6667 269.168C18.6859 269.137 18.7022 269.1 18.7512 269.091C18.8174 269.105 18.8337 269.169 18.8664 269.216C20.3458 271.463 21.8258 273.71 23.3065 275.956C23.6215 276.434 23.9355 276.912 24.2524 277.39C24.2917 277.472 24.3479 277.545 24.4175 277.606Z" fill="#258BCD"/>
</g>
<g opacity="0.05">
<path d="M54.6143 44.339L43.5341 50.5015C43.1132 50.7362 42.7638 51.0733 42.5209 51.4791C42.2781 51.8849 42.1503 52.345 42.1504 52.8134L42.1571 65.1513C42.1567 65.6197 42.2844 66.08 42.5273 66.4858C42.7702 66.8916 43.1197 67.2287 43.5408 67.4632L54.6316 73.6377C55.0527 73.8718 55.5304 73.9951 56.0167 73.9951C56.503 73.9951 56.9807 73.8718 57.4019 73.6377L68.4811 67.477C68.9024 67.2427 69.2523 66.9057 69.4955 66.4999C69.7387 66.094 69.8668 65.6337 69.8668 65.1652L69.8591 52.8254C69.859 52.3579 69.7311 51.8988 69.4884 51.4939C69.2457 51.0891 68.8967 50.7529 68.4763 50.5191L57.3836 44.3409C56.9625 44.1067 56.4848 43.9835 55.9985 43.9835C55.5122 43.9835 55.0345 44.1067 54.6133 44.3409L54.6143 44.339Z" fill="white"/>
<path d="M50.9578 69.4634C50.9752 69.3833 51.0124 69.3084 51.0664 69.2452L61.0106 52.9974C61.0576 52.9225 61.0999 52.8467 61.1383 52.7783C61.1095 52.7302 61.0769 52.7394 61.048 52.7394C59.6317 52.744 58.2153 52.7533 56.799 52.7514C56.738 52.7506 56.6782 52.7679 56.6279 52.801C56.5775 52.8341 56.539 52.8814 56.5176 52.9364C55.4486 54.6367 54.3785 56.3376 53.3076 58.0391L46.5004 68.8586C46.4788 68.8884 46.4589 68.9192 46.4409 68.9511C46.4005 69.0241 46.3554 69.0371 46.2748 68.9918C45.9223 68.7911 45.5661 68.5978 45.1916 68.3907L55.2914 52.7875C55.2684 52.7255 55.2251 52.7403 55.1896 52.7394C54.65 52.7237 54.1074 52.7024 53.5659 52.6978C52.8059 52.6758 52.0486 52.7932 51.3343 53.0437C50.684 53.2758 50.1314 53.7081 49.7623 54.2736C47.9206 57.0453 46.0683 59.8143 44.2054 62.5805C44.1766 62.624 44.1459 62.6665 44.1152 62.71C44.0086 62.71 44.0249 62.6258 44.0191 62.5667C44.0096 62.4776 44.0074 62.3879 44.0124 62.2985C44.0124 59.2413 44.024 56.185 44.0028 53.1278C43.9852 52.8646 44.0502 52.6024 44.1892 52.3752C44.3282 52.148 44.5349 51.9662 44.7825 51.8535C47.2225 50.5126 49.6462 49.1459 52.0804 47.792C53.1654 47.1882 54.2553 46.5899 55.3317 45.9731C55.5345 45.8421 55.7732 45.7722 56.0173 45.7722C56.2615 45.7722 56.5002 45.8421 56.703 45.9731C58.6859 47.0929 60.686 48.1878 62.6776 49.291C64.18 50.1239 65.6844 50.9562 67.1907 51.7879C67.2973 51.847 67.4029 51.9108 67.5105 51.9728C67.6863 52.0629 67.8316 52.1996 67.9293 52.3668C68.027 52.534 68.0729 52.7245 68.0616 52.916C68.0648 56.2408 68.0648 59.5656 68.0616 62.8903C68.0694 62.9724 68.0599 63.0551 68.0338 63.1335C67.9157 63.2445 67.8725 63.1197 67.8283 63.0605C67.6487 62.8173 67.4884 62.562 67.3223 62.3114C65.9901 60.3029 64.6528 58.2968 63.3104 56.2932C62.8591 55.6154 62.4029 54.9412 61.9574 54.2588C61.8537 54.0997 61.8345 54.0988 61.7308 54.268C61.0567 55.3641 60.3845 56.4609 59.7143 57.5583C59.677 57.6191 59.6608 57.6899 59.6681 57.7602C59.6753 57.8305 59.7056 57.8968 59.7546 57.9494C60.309 58.8125 60.8624 59.6756 61.4149 60.5387L64.2447 64.9488C64.6288 65.545 65.0129 66.1402 65.397 66.7345C65.4686 66.8142 65.5087 66.9157 65.5103 67.0212C65.4344 67.1673 65.2741 67.2061 65.1415 67.2745C64.9237 67.4265 64.684 67.5471 64.43 67.6324C64.2927 67.6 64.2437 67.4817 64.1794 67.3837C63.3027 66.0659 62.4366 64.7444 61.5666 63.4239C60.6707 62.0673 59.7796 60.7052 58.8779 59.3504C58.7627 59.1756 58.7454 59.1756 58.6369 59.3504C57.8543 60.6182 57.0832 61.8916 56.2987 63.1576C56.2582 63.2167 56.2382 63.2868 56.2417 63.3576C56.2451 63.4284 56.2718 63.4963 56.3179 63.5515C57.3742 65.1236 58.4055 66.7021 59.4512 68.2779C59.7392 68.719 60.0369 69.1564 60.3231 69.5984C60.3778 69.6844 60.4556 69.7695 60.4037 69.8869C60.1299 70.0927 59.8341 70.2697 59.5213 70.415C58.5444 70.963 57.5672 71.5095 56.5897 72.0545C56.4336 72.1526 56.2512 72.2048 56.0649 72.2048C55.8785 72.2048 55.6962 72.1526 55.5401 72.0545C54.0991 71.2531 52.6568 70.4547 51.2133 69.6594C51.1139 69.6216 51.0277 69.5575 50.9646 69.4745" fill="#202A3B"/>
<path d="M67.9893 63.1585C67.9893 63.0762 67.996 62.9948 67.996 62.9125C67.996 59.5958 67.996 56.279 67.996 52.9623C68.0084 52.7611 67.9594 52.5607 67.8552 52.386C67.751 52.2112 67.596 52.0695 67.4093 51.9783C63.7937 49.984 60.18 47.9822 56.5682 45.9731C56.4054 45.8717 56.2157 45.8178 56.0218 45.8178C55.828 45.8178 55.6382 45.8717 55.4755 45.9731C53.4705 47.0951 51.4623 48.2143 49.4509 49.3308C47.8371 50.229 46.2239 51.1285 44.6113 52.0292C44.4389 52.1151 44.296 52.2473 44.1999 52.4098C44.1038 52.5722 44.0586 52.758 44.0697 52.9447C44.078 56.1277 44.0822 59.3106 44.0822 62.4936C44.0822 62.5639 44.0534 62.6434 44.1177 62.7054C43.7336 63.3175 43.3159 63.9075 42.9126 64.5058L42.3067 65.4056C42.2741 65.4528 42.2357 65.4981 42.1723 65.5813C42.1675 65.4814 42.1627 65.426 42.1627 65.3714C42.1627 61.1731 42.1627 56.9753 42.1627 52.7782C42.1526 52.3124 42.2758 51.8529 42.5188 51.45C42.7619 51.0471 43.1154 50.7164 43.5406 50.4941C44.9445 49.6924 46.3657 48.9221 47.7772 48.1314C48.9669 47.4684 50.1557 46.7989 51.3445 46.1321C52.4555 45.5125 53.5531 44.8726 54.6833 44.2826C55.1156 44.051 55.6045 43.9353 56.099 43.9477C56.5936 43.9601 57.0756 44.1 57.4948 44.3529C58.4023 44.8495 59.3059 45.3544 60.2114 45.8556C61.0621 46.326 61.9126 46.7979 62.7627 47.2714L65.1172 48.5744L67.4506 49.8634C67.7915 50.053 68.1343 50.2417 68.4742 50.4349C68.8493 50.6394 69.1717 50.9226 69.4178 51.2634C69.6638 51.6042 69.827 51.9939 69.8954 52.4037C69.9107 52.5224 69.9155 52.6421 69.9098 52.7616C69.9098 56.8921 69.9098 61.0226 69.9098 65.1532C69.9123 65.5458 69.8246 65.9342 69.6529 66.2904C69.4813 66.6466 69.2299 66.9618 68.9169 67.2135C68.7374 67.3447 68.5443 67.4578 68.3407 67.551C67.1782 68.2033 66.0144 68.8537 64.8493 69.5022C63.6151 70.1896 62.3783 70.8785 61.1389 71.569C59.9483 72.2348 58.7585 72.9013 57.5697 73.5683C57.2739 73.7597 56.9411 73.8921 56.5913 73.9576C56.0098 74.0671 55.4071 73.9935 54.8724 73.7477C54.279 73.4407 53.7019 73.1096 53.1181 72.7869C52.3319 72.3554 51.5478 71.921 50.7655 71.4839C50.544 71.3606 50.3225 71.2373 50.101 71.114C50.0184 71.0706 49.9637 71.0216 50.0271 70.9226C50.3151 70.4492 50.609 69.9729 50.8999 69.4994C50.9114 69.4819 50.9374 69.4745 50.9566 69.4625C51.2285 69.5842 51.4916 69.7236 51.744 69.8795C53.0243 70.5848 54.3027 71.2938 55.5792 72.0064C55.7266 72.0963 55.898 72.1431 56.0725 72.1411C56.247 72.1392 56.4172 72.0885 56.5624 71.9953C57.7733 71.3119 58.9928 70.636 60.2114 69.9609C60.2709 69.9285 60.3323 69.8971 60.3938 69.8684C60.5085 69.727 60.6617 69.6191 60.8365 69.5568C61.934 68.9511 63.0239 68.3324 64.1224 67.7286C64.2184 67.6768 64.2972 67.6009 64.4162 67.613L65.4917 67.0137C65.558 66.8796 65.6972 66.838 65.8153 66.7724C66.3569 66.4718 66.8937 66.162 67.4391 65.8708C67.5971 65.7907 67.7277 65.6685 67.8154 65.5187C67.9031 65.369 67.9442 65.1981 67.9336 65.0265C67.9384 64.4984 67.9336 63.9704 67.9336 63.4424C67.9162 63.3463 67.9364 63.2475 67.9903 63.165" fill="#81B2D4"/>
<path d="M67.9893 63.1585C67.9893 63.8141 68.0076 64.4697 67.9893 65.1235C67.9933 65.2767 67.9532 65.428 67.8736 65.5606C67.7939 65.6933 67.6778 65.8022 67.538 65.8753C66.8524 66.2452 66.1793 66.6429 65.4889 67.0063C65.2142 66.5236 64.8974 66.064 64.5958 65.5942C63.0377 63.1628 61.4776 60.7291 59.9156 58.2934C59.8196 58.1473 59.7361 57.9956 59.6276 57.8587C59.5943 57.8196 59.5762 57.7706 59.5762 57.72C59.5762 57.6695 59.5943 57.6205 59.6276 57.5813C60.0011 56.9802 60.3679 56.3792 60.7366 55.7716L61.7622 54.0978C61.7795 54.0574 61.8116 54.0245 61.8524 54.0053C62.0301 54.2698 62.2116 54.5361 62.3911 54.8043C63.4698 56.4208 64.5478 58.0378 65.6252 59.6555C66.3576 60.7535 67.0889 61.8515 67.8194 62.9495C67.8594 63.0306 67.9159 63.1032 67.9855 63.1631" fill="#258BCD"/>
<path d="M64.4175 67.6056C63.9729 67.8885 63.5005 68.1271 63.0415 68.3888C62.209 68.8604 61.3707 69.3228 60.5372 69.787L60.3951 69.8638C60.3853 69.7893 60.3517 69.7195 60.2991 69.6641C59.5552 68.5383 58.812 67.4129 58.0694 66.2878C57.458 65.3631 56.8451 64.4383 56.2305 63.5136C56.1891 63.4663 56.1648 63.4073 56.1615 63.3455C56.1582 63.2837 56.1761 63.2225 56.2123 63.1714C57.0355 61.8386 57.8536 60.5042 58.6667 59.1682C58.6859 59.1368 58.7022 59.0998 58.7512 59.0915C58.8174 59.1053 58.8337 59.1691 58.8664 59.2163C60.3458 61.4634 61.8258 63.7099 63.3065 65.9558C63.6215 66.4339 63.9355 66.912 64.2524 67.3901C64.2917 67.472 64.3479 67.5453 64.4175 67.6056Z" fill="#258BCD"/>
</g>
<g opacity="0.05">
<path d="M54.6143 212.339L43.5341 218.501C43.1132 218.736 42.7638 219.073 42.5209 219.479C42.2781 219.885 42.1503 220.345 42.1504 220.813L42.1571 233.151C42.1567 233.62 42.2844 234.08 42.5273 234.486C42.7702 234.892 43.1197 235.229 43.5408 235.463L54.6316 241.638C55.0527 241.872 55.5304 241.995 56.0167 241.995C56.503 241.995 56.9807 241.872 57.4019 241.638L68.4811 235.477C68.9024 235.243 69.2523 234.906 69.4955 234.5C69.7387 234.094 69.8668 233.634 69.8668 233.165L69.8591 220.825C69.859 220.358 69.7311 219.899 69.4884 219.494C69.2457 219.089 68.8967 218.753 68.4763 218.519L57.3836 212.341C56.9625 212.107 56.4848 211.983 55.9985 211.983C55.5122 211.983 55.0345 212.107 54.6133 212.341L54.6143 212.339Z" fill="white"/>
<path d="M50.9578 237.463C50.9752 237.383 51.0124 237.308 51.0664 237.245L61.0106 220.997C61.0576 220.923 61.0999 220.847 61.1383 220.778C61.1095 220.73 61.0769 220.739 61.048 220.739C59.6317 220.744 58.2153 220.753 56.799 220.751C56.738 220.751 56.6782 220.768 56.6279 220.801C56.5775 220.834 56.539 220.881 56.5176 220.936C55.4486 222.637 54.3785 224.338 53.3076 226.039L46.5004 236.859C46.4788 236.888 46.4589 236.919 46.4409 236.951C46.4005 237.024 46.3554 237.037 46.2748 236.992C45.9223 236.791 45.5661 236.598 45.1916 236.391L55.2914 220.787C55.2684 220.726 55.2251 220.74 55.1896 220.739C54.65 220.724 54.1074 220.702 53.5659 220.698C52.8059 220.676 52.0486 220.793 51.3343 221.044C50.684 221.276 50.1314 221.708 49.7623 222.274C47.9206 225.045 46.0683 227.814 44.2054 230.581C44.1766 230.624 44.1459 230.667 44.1152 230.71C44.0086 230.71 44.0249 230.626 44.0191 230.567C44.0096 230.478 44.0074 230.388 44.0124 230.298C44.0124 227.241 44.024 224.185 44.0028 221.128C43.9852 220.865 44.0502 220.602 44.1892 220.375C44.3282 220.148 44.5349 219.966 44.7825 219.853C47.2225 218.513 49.6462 217.146 52.0804 215.792C53.1654 215.188 54.2553 214.59 55.3317 213.973C55.5345 213.842 55.7732 213.772 56.0173 213.772C56.2615 213.772 56.5002 213.842 56.703 213.973C58.6859 215.093 60.686 216.188 62.6776 217.291C64.18 218.124 65.6844 218.956 67.1907 219.788C67.2973 219.847 67.4029 219.911 67.5105 219.973C67.6863 220.063 67.8316 220.2 67.9293 220.367C68.027 220.534 68.0729 220.725 68.0616 220.916C68.0648 224.241 68.0648 227.566 68.0616 230.89C68.0694 230.972 68.0599 231.055 68.0338 231.134C67.9157 231.244 67.8725 231.12 67.8283 231.06C67.6487 230.817 67.4884 230.562 67.3223 230.311C65.9901 228.303 64.6528 226.297 63.3104 224.293C62.8591 223.615 62.4029 222.941 61.9574 222.259C61.8537 222.1 61.8345 222.099 61.7308 222.268C61.0567 223.364 60.3845 224.461 59.7143 225.558C59.677 225.619 59.6608 225.69 59.6681 225.76C59.6753 225.83 59.7056 225.897 59.7546 225.949C60.309 226.812 60.8624 227.676 61.4149 228.539L64.2447 232.949C64.6288 233.545 65.0129 234.14 65.397 234.734C65.4686 234.814 65.5087 234.916 65.5103 235.021C65.4344 235.167 65.2741 235.206 65.1415 235.275C64.9237 235.426 64.684 235.547 64.43 235.632C64.2927 235.6 64.2437 235.482 64.1794 235.384C63.3027 234.066 62.4366 232.744 61.5666 231.424C60.6707 230.067 59.7796 228.705 58.8779 227.35C58.7627 227.176 58.7454 227.176 58.6369 227.35C57.8543 228.618 57.0832 229.892 56.2987 231.158C56.2582 231.217 56.2382 231.287 56.2417 231.358C56.2451 231.428 56.2718 231.496 56.3179 231.551C57.3742 233.124 58.4055 234.702 59.4512 236.278C59.7392 236.719 60.0369 237.156 60.3231 237.598C60.3778 237.684 60.4556 237.769 60.4037 237.887C60.1299 238.093 59.8341 238.27 59.5213 238.415C58.5444 238.963 57.5672 239.51 56.5897 240.055C56.4336 240.153 56.2512 240.205 56.0649 240.205C55.8785 240.205 55.6962 240.153 55.5401 240.055C54.0991 239.253 52.6568 238.455 51.2133 237.659C51.1139 237.622 51.0277 237.557 50.9646 237.474" fill="#202A3B"/>
<path d="M67.9893 231.158C67.9893 231.076 67.996 230.995 67.996 230.912C67.996 227.596 67.996 224.279 67.996 220.962C68.0084 220.761 67.9594 220.561 67.8552 220.386C67.751 220.211 67.596 220.069 67.4093 219.978C63.7937 217.984 60.18 215.982 56.5682 213.973C56.4054 213.872 56.2157 213.818 56.0218 213.818C55.828 213.818 55.6382 213.872 55.4755 213.973C53.4705 215.095 51.4623 216.214 49.4509 217.331C47.8371 218.229 46.2239 219.128 44.6113 220.029C44.4389 220.115 44.296 220.247 44.1999 220.41C44.1038 220.572 44.0586 220.758 44.0697 220.945C44.078 224.128 44.0822 227.311 44.0822 230.494C44.0822 230.564 44.0534 230.643 44.1177 230.705C43.7336 231.318 43.3159 231.908 42.9126 232.506L42.3067 233.406C42.2741 233.453 42.2357 233.498 42.1723 233.581C42.1675 233.481 42.1627 233.426 42.1627 233.371C42.1627 229.173 42.1627 224.975 42.1627 220.778C42.1526 220.312 42.2758 219.853 42.5188 219.45C42.7619 219.047 43.1154 218.716 43.5406 218.494C44.9445 217.692 46.3657 216.922 47.7772 216.131C48.9669 215.468 50.1557 214.799 51.3445 214.132C52.4555 213.513 53.5531 212.873 54.6833 212.283C55.1156 212.051 55.6045 211.935 56.099 211.948C56.5936 211.96 57.0756 212.1 57.4948 212.353C58.4023 212.849 59.3059 213.354 60.2114 213.856C61.0621 214.326 61.9126 214.798 62.7627 215.271L65.1172 216.574L67.4506 217.863C67.7915 218.053 68.1343 218.242 68.4742 218.435C68.8493 218.639 69.1717 218.923 69.4178 219.263C69.6638 219.604 69.827 219.994 69.8954 220.404C69.9107 220.522 69.9155 220.642 69.9098 220.762C69.9098 224.892 69.9098 229.023 69.9098 233.153C69.9123 233.546 69.8246 233.934 69.6529 234.29C69.4813 234.647 69.2299 234.962 68.9169 235.213C68.7374 235.345 68.5443 235.458 68.3407 235.551C67.1782 236.203 66.0144 236.854 64.8493 237.502C63.6151 238.19 62.3783 238.879 61.1389 239.569C59.9483 240.235 58.7585 240.901 57.5697 241.568C57.2739 241.76 56.9411 241.892 56.5913 241.958C56.0098 242.067 55.4071 241.993 54.8724 241.748C54.279 241.441 53.7019 241.11 53.1181 240.787C52.3319 240.355 51.5478 239.921 50.7655 239.484C50.544 239.361 50.3225 239.237 50.101 239.114C50.0184 239.071 49.9637 239.022 50.0271 238.923C50.3151 238.449 50.609 237.973 50.8999 237.499C50.9114 237.482 50.9374 237.474 50.9566 237.462C51.2285 237.584 51.4916 237.724 51.744 237.88C53.0243 238.585 54.3027 239.294 55.5792 240.006C55.7266 240.096 55.898 240.143 56.0725 240.141C56.247 240.139 56.4172 240.089 56.5624 239.995C57.7733 239.312 58.9928 238.636 60.2114 237.961C60.2709 237.929 60.3323 237.897 60.3938 237.868C60.5085 237.727 60.6617 237.619 60.8365 237.557C61.934 236.951 63.0239 236.332 64.1224 235.729C64.2184 235.677 64.2972 235.601 64.4162 235.613L65.4917 235.014C65.558 234.88 65.6972 234.838 65.8153 234.772C66.3569 234.472 66.8937 234.162 67.4391 233.871C67.5971 233.791 67.7277 233.668 67.8154 233.519C67.9031 233.369 67.9442 233.198 67.9336 233.026C67.9384 232.498 67.9336 231.97 67.9336 231.442C67.9162 231.346 67.9364 231.247 67.9903 231.165" fill="#81B2D4"/>
<path d="M67.9893 231.158C67.9893 231.814 68.0076 232.47 67.9893 233.124C67.9933 233.277 67.9532 233.428 67.8736 233.561C67.7939 233.693 67.6778 233.802 67.538 233.875C66.8524 234.245 66.1793 234.643 65.4889 235.006C65.2142 234.524 64.8974 234.064 64.5958 233.594C63.0377 231.163 61.4776 228.729 59.9156 226.293C59.8196 226.147 59.7361 225.996 59.6276 225.859C59.5943 225.82 59.5762 225.771 59.5762 225.72C59.5762 225.669 59.5943 225.62 59.6276 225.581C60.0011 224.98 60.3679 224.379 60.7366 223.772L61.7622 222.098C61.7795 222.057 61.8116 222.025 61.8524 222.005C62.0301 222.27 62.2116 222.536 62.3911 222.804C63.4698 224.421 64.5478 226.038 65.6252 227.656C66.3576 228.753 67.0889 229.851 67.8194 230.949C67.8594 231.031 67.9159 231.103 67.9855 231.163" fill="#258BCD"/>
<path d="M64.4175 235.606C63.9729 235.889 63.5005 236.127 63.0415 236.389C62.209 236.86 61.3707 237.323 60.5372 237.787L60.3951 237.864C60.3853 237.789 60.3517 237.719 60.2991 237.664C59.5552 236.538 58.812 235.413 58.0694 234.288C57.458 233.363 56.8451 232.438 56.2305 231.514C56.1891 231.466 56.1648 231.407 56.1615 231.345C56.1582 231.284 56.1761 231.223 56.2123 231.171C57.0355 229.839 57.8536 228.504 58.6667 227.168C58.6859 227.137 58.7022 227.1 58.7512 227.091C58.8174 227.105 58.8337 227.169 58.8664 227.216C60.3458 229.463 61.8258 231.71 63.3065 233.956C63.6215 234.434 63.9355 234.912 64.2524 235.39C64.2917 235.472 64.3479 235.545 64.4175 235.606Z" fill="#258BCD"/>
</g>
<g opacity="0.05">
<path d="M54.6143 128.339L43.5341 134.502C43.1132 134.736 42.7638 135.073 42.5209 135.479C42.2781 135.885 42.1503 136.345 42.1504 136.813L42.1571 149.151C42.1567 149.62 42.2844 150.08 42.5273 150.486C42.7702 150.892 43.1197 151.229 43.5408 151.463L54.6316 157.638C55.0527 157.872 55.5304 157.995 56.0167 157.995C56.503 157.995 56.9807 157.872 57.4019 157.638L68.4811 151.477C68.9024 151.243 69.2523 150.906 69.4955 150.5C69.7387 150.094 69.8668 149.634 69.8668 149.165L69.8591 136.825C69.859 136.358 69.7311 135.899 69.4884 135.494C69.2457 135.089 68.8967 134.753 68.4763 134.519L57.3836 128.341C56.9625 128.107 56.4848 127.983 55.9985 127.983C55.5122 127.983 55.0345 128.107 54.6133 128.341L54.6143 128.339Z" fill="white"/>
<path d="M50.9578 153.463C50.9752 153.383 51.0124 153.308 51.0664 153.245L61.0106 136.997C61.0576 136.923 61.0999 136.847 61.1383 136.778C61.1095 136.73 61.0769 136.739 61.048 136.739C59.6317 136.744 58.2153 136.753 56.799 136.751C56.738 136.751 56.6782 136.768 56.6279 136.801C56.5775 136.834 56.539 136.881 56.5176 136.936C55.4486 138.637 54.3785 140.338 53.3076 142.039L46.5004 152.859C46.4788 152.888 46.4589 152.919 46.4409 152.951C46.4005 153.024 46.3554 153.037 46.2748 152.992C45.9223 152.791 45.5661 152.598 45.1916 152.391L55.2914 136.788C55.2684 136.726 55.2251 136.74 55.1896 136.739C54.65 136.724 54.1074 136.702 53.5659 136.698C52.8059 136.676 52.0486 136.793 51.3343 137.044C50.684 137.276 50.1314 137.708 49.7623 138.274C47.9206 141.045 46.0683 143.814 44.2054 146.581C44.1766 146.624 44.1459 146.667 44.1152 146.71C44.0086 146.71 44.0249 146.626 44.0191 146.567C44.0096 146.478 44.0074 146.388 44.0124 146.298C44.0124 143.241 44.024 140.185 44.0028 137.128C43.9852 136.865 44.0502 136.602 44.1892 136.375C44.3282 136.148 44.5349 135.966 44.7825 135.854C47.2225 134.513 49.6462 133.146 52.0804 131.792C53.1654 131.188 54.2553 130.59 55.3317 129.973C55.5345 129.842 55.7732 129.772 56.0173 129.772C56.2615 129.772 56.5002 129.842 56.703 129.973C58.6859 131.093 60.686 132.188 62.6776 133.291C64.18 134.124 65.6844 134.956 67.1907 135.788C67.2973 135.847 67.4029 135.911 67.5105 135.973C67.6863 136.063 67.8316 136.2 67.9293 136.367C68.027 136.534 68.0729 136.725 68.0616 136.916C68.0648 140.241 68.0648 143.566 68.0616 146.89C68.0694 146.972 68.0599 147.055 68.0338 147.134C67.9157 147.244 67.8725 147.12 67.8283 147.06C67.6487 146.817 67.4884 146.562 67.3223 146.311C65.9901 144.303 64.6528 142.297 63.3104 140.293C62.8591 139.615 62.4029 138.941 61.9574 138.259C61.8537 138.1 61.8345 138.099 61.7308 138.268C61.0567 139.364 60.3845 140.461 59.7143 141.558C59.677 141.619 59.6608 141.69 59.6681 141.76C59.6753 141.831 59.7056 141.897 59.7546 141.949C60.309 142.813 60.8624 143.676 61.4149 144.539L64.2447 148.949C64.6288 149.545 65.0129 150.14 65.397 150.734C65.4686 150.814 65.5087 150.916 65.5103 151.021C65.4344 151.167 65.2741 151.206 65.1415 151.275C64.9237 151.427 64.684 151.547 64.43 151.632C64.2927 151.6 64.2437 151.482 64.1794 151.384C63.3027 150.066 62.4366 148.744 61.5666 147.424C60.6707 146.067 59.7796 144.705 58.8779 143.35C58.7627 143.176 58.7454 143.176 58.6369 143.35C57.8543 144.618 57.0832 145.892 56.2987 147.158C56.2582 147.217 56.2382 147.287 56.2417 147.358C56.2451 147.428 56.2718 147.496 56.3179 147.552C57.3742 149.124 58.4055 150.702 59.4512 152.278C59.7392 152.719 60.0369 153.156 60.3231 153.598C60.3778 153.684 60.4556 153.769 60.4037 153.887C60.1299 154.093 59.8341 154.27 59.5213 154.415C58.5444 154.963 57.5672 155.51 56.5897 156.055C56.4336 156.153 56.2512 156.205 56.0649 156.205C55.8785 156.205 55.6962 156.153 55.5401 156.055C54.0991 155.253 52.6568 154.455 51.2133 153.659C51.1139 153.622 51.0277 153.557 50.9646 153.474" fill="#202A3B"/>
<path d="M67.9893 147.158C67.9893 147.076 67.996 146.995 67.996 146.913C67.996 143.596 67.996 140.279 67.996 136.962C68.0084 136.761 67.9594 136.561 67.8552 136.386C67.751 136.211 67.596 136.069 67.4093 135.978C63.7937 133.984 60.18 131.982 56.5682 129.973C56.4054 129.872 56.2157 129.818 56.0218 129.818C55.828 129.818 55.6382 129.872 55.4755 129.973C53.4705 131.095 51.4623 132.214 49.4509 133.331C47.8371 134.229 46.2239 135.128 44.6113 136.029C44.4389 136.115 44.296 136.247 44.1999 136.41C44.1038 136.572 44.0586 136.758 44.0697 136.945C44.078 140.128 44.0822 143.311 44.0822 146.494C44.0822 146.564 44.0534 146.643 44.1177 146.705C43.7336 147.318 43.3159 147.908 42.9126 148.506L42.3067 149.406C42.2741 149.453 42.2357 149.498 42.1723 149.581C42.1675 149.481 42.1627 149.426 42.1627 149.371C42.1627 145.173 42.1627 140.975 42.1627 136.778C42.1526 136.312 42.2758 135.853 42.5188 135.45C42.7619 135.047 43.1154 134.716 43.5406 134.494C44.9445 133.692 46.3657 132.922 47.7772 132.131C48.9669 131.468 50.1557 130.799 51.3445 130.132C52.4555 129.513 53.5531 128.873 54.6833 128.283C55.1156 128.051 55.6045 127.935 56.099 127.948C56.5936 127.96 57.0756 128.1 57.4948 128.353C58.4023 128.849 59.3059 129.354 60.2114 129.856C61.0621 130.326 61.9126 130.798 62.7627 131.271L65.1172 132.574L67.4506 133.863C67.7915 134.053 68.1343 134.242 68.4742 134.435C68.8493 134.639 69.1717 134.923 69.4178 135.263C69.6638 135.604 69.827 135.994 69.8954 136.404C69.9107 136.522 69.9155 136.642 69.9098 136.762C69.9098 140.892 69.9098 145.023 69.9098 149.153C69.9123 149.546 69.8246 149.934 69.6529 150.29C69.4813 150.647 69.2299 150.962 68.9169 151.213C68.7374 151.345 68.5443 151.458 68.3407 151.551C67.1782 152.203 66.0144 152.854 64.8493 153.502C63.6151 154.19 62.3783 154.879 61.1389 155.569C59.9483 156.235 58.7585 156.901 57.5697 157.568C57.2739 157.76 56.9411 157.892 56.5913 157.958C56.0098 158.067 55.4071 157.994 54.8724 157.748C54.279 157.441 53.7019 157.11 53.1181 156.787C52.3319 156.355 51.5478 155.921 50.7655 155.484C50.544 155.361 50.3225 155.237 50.101 155.114C50.0184 155.071 49.9637 155.022 50.0271 154.923C50.3151 154.449 50.609 153.973 50.8999 153.499C50.9114 153.482 50.9374 153.474 50.9566 153.462C51.2285 153.584 51.4916 153.724 51.744 153.88C53.0243 154.585 54.3027 155.294 55.5792 156.006C55.7266 156.096 55.898 156.143 56.0725 156.141C56.247 156.139 56.4172 156.089 56.5624 155.995C57.7733 155.312 58.9928 154.636 60.2114 153.961C60.2709 153.929 60.3323 153.897 60.3938 153.868C60.5085 153.727 60.6617 153.619 60.8365 153.557C61.934 152.951 63.0239 152.332 64.1224 151.729C64.2184 151.677 64.2972 151.601 64.4162 151.613L65.4917 151.014C65.558 150.88 65.6972 150.838 65.8153 150.772C66.3569 150.472 66.8937 150.162 67.4391 149.871C67.5971 149.791 67.7277 149.668 67.8154 149.519C67.9031 149.369 67.9442 149.198 67.9336 149.026C67.9384 148.498 67.9336 147.97 67.9336 147.442C67.9162 147.346 67.9364 147.247 67.9903 147.165" fill="#81B2D4"/>
<path d="M67.9893 147.158C67.9893 147.814 68.0076 148.47 67.9893 149.124C67.9933 149.277 67.9532 149.428 67.8736 149.561C67.7939 149.693 67.6778 149.802 67.538 149.875C66.8524 150.245 66.1793 150.643 65.4889 151.006C65.2142 150.524 64.8974 150.064 64.5958 149.594C63.0377 147.163 61.4776 144.729 59.9156 142.293C59.8196 142.147 59.7361 141.996 59.6276 141.859C59.5943 141.82 59.5762 141.771 59.5762 141.72C59.5762 141.669 59.5943 141.62 59.6276 141.581C60.0011 140.98 60.3679 140.379 60.7366 139.772L61.7622 138.098C61.7795 138.057 61.8116 138.025 61.8524 138.005C62.0301 138.27 62.2116 138.536 62.3911 138.804C63.4698 140.421 64.5478 142.038 65.6252 143.656C66.3576 144.754 67.0889 145.851 67.8194 146.949C67.8594 147.031 67.9159 147.103 67.9855 147.163" fill="#258BCD"/>
<path d="M64.4175 151.606C63.9729 151.889 63.5005 152.127 63.0415 152.389C62.209 152.86 61.3707 153.323 60.5372 153.787L60.3951 153.864C60.3853 153.789 60.3517 153.719 60.2991 153.664C59.5552 152.538 58.812 151.413 58.0694 150.288C57.458 149.363 56.8451 148.438 56.2305 147.514C56.1891 147.466 56.1648 147.407 56.1615 147.345C56.1582 147.284 56.1761 147.223 56.2123 147.171C57.0355 145.839 57.8536 144.504 58.6667 143.168C58.6859 143.137 58.7022 143.1 58.7512 143.091C58.8174 143.105 58.8337 143.169 58.8664 143.216C60.3458 145.463 61.8258 147.71 63.3065 149.956C63.6215 150.434 63.9355 150.912 64.2524 151.39C64.2917 151.472 64.3479 151.545 64.4175 151.606Z" fill="#258BCD"/>
</g>
</svg>
