<svg width="20" height="20" viewBox="0 0 20 20" fill="none" xmlns="http://www.w3.org/2000/svg">
<path d="M10 20C15.5228 20 20 15.5228 20 10C20 4.47715 15.5228 0 10 0C4.47715 0 0 4.47715 0 10C0 15.5228 4.47715 20 10 20Z" fill="#F7B11D"/>
<path d="M6.11721 4.92901L9.98245 2.69495L13.8654 4.92901L12.447 5.76234L9.98245 4.34387L7.53574 5.76234L6.11721 4.92901ZM13.8654 7.74815L12.447 6.93256L9.98245 8.33323L7.53574 6.93256L6.11721 7.74815V9.41482L8.56403 10.8155V13.6347L9.98245 14.468L11.4187 13.6347V10.8155L13.8654 9.41482V7.74815ZM13.8654 12.234V10.5673L12.447 11.4006V13.0496L13.8654 12.234ZM14.8761 12.8014L12.4293 14.2198V15.8687L16.2946 13.6347V9.16657L14.8761 9.98221V12.8014ZM13.4577 6.34742L14.8761 7.16307V8.82968L16.2946 7.9964V6.41836L14.8761 5.58503L13.4577 6.34742ZM8.56403 14.8226V16.4716L9.98245 17.2872L11.4187 16.4716V14.8226L9.98245 15.6382L8.56403 14.8226ZM6.11721 12.234L7.53574 13.0496V11.4006L6.11721 10.5673V12.234ZM8.56403 6.34742L9.98245 7.16307L11.4187 6.34742L9.98245 5.51409L8.56403 6.34742ZM5.10656 7.16307L6.52509 6.34742L5.10656 5.51409L3.68814 6.34742V7.9964L5.10656 8.82968V7.16307ZM5.10656 9.98221L3.68814 9.16657V13.6347L7.55338 15.8687V14.2198L5.10656 12.8014V9.98221Z" fill="white"/>
</svg>
